<svg width="830" height="250" viewBox="0 0 830 250" fill="none" xmlns="http://www.w3.org/2000/svg">
<g opacity="0.06" clip-path="url(#clip0_1047_1474)">
<path d="M134.027 194.907C127.258 200.406 130.665 208.087 128.973 218.762C126.499 234.424 134.005 240.54 140.796 237.772C147.587 235.003 147.475 224.983 153.642 220.432L153.702 220.394L153.755 220.349C159.771 215.534 169.368 218.175 173.775 212.299C178.183 206.424 174.159 197.615 158.38 196.05C147.625 194.952 141.059 189.731 134.027 194.907Z" fill="#6172F3"/>
<path d="M113.458 202.603C121.317 204.859 126.484 210.878 125.002 215.933C123.521 220.988 115.977 223.238 108.095 220.943C100.213 218.649 95.0766 212.668 96.5582 207.613C98.0398 202.557 105.606 200.3 113.458 202.603Z" fill="#6172F3"/>
<path d="M146.708 176.919C146.941 185.104 151.408 191.612 156.68 191.461C161.953 191.311 166.044 184.555 165.803 176.37C165.563 168.185 161.11 161.678 155.831 161.828C150.551 161.979 146.475 168.742 146.708 176.919Z" fill="#6172F3"/>
<path d="M118.121 177.958C124.513 183.758 126.664 191.8 122.926 195.922C119.189 200.045 110.976 198.683 104.583 192.913C98.1902 187.143 96.0392 179.063 99.7846 174.941C103.53 170.818 111.735 172.157 118.121 177.958Z" fill="#6172F3"/>
<path d="M121.693 175.197C125.687 182.855 132.922 186.97 137.856 184.39C142.79 181.809 143.549 173.527 139.556 165.868C135.562 158.21 128.319 154.103 123.393 156.683C118.467 159.263 117.707 167.546 121.693 175.197Z" fill="#6172F3"/>
<path d="M522.508 238.986C522.635 230.803 518.462 224.102 513.187 224.02C507.913 223.938 503.534 230.506 503.407 238.69C503.28 246.874 507.453 253.574 512.727 253.656C518.002 253.738 522.381 247.17 522.508 238.986Z" fill="#6172F3"/>
<path d="M474.688 238.449C480.818 244.527 482.608 252.652 478.689 256.609C474.771 260.566 466.656 258.866 460.496 252.758C454.336 246.649 452.577 238.547 456.495 234.597C460.413 230.648 468.558 232.371 474.688 238.449Z" fill="#6172F3"/>
<path d="M478.374 235.846C482.029 243.67 489.076 248.101 494.115 245.746C499.154 243.392 500.282 235.139 496.627 227.315C492.972 219.491 485.925 215.068 480.886 217.423C475.847 219.777 474.719 228.007 478.374 235.846Z" fill="#6172F3"/>
<path d="M736.68 170.525C730.235 164.665 723.142 169.156 712.342 169.065C696.488 168.93 691.555 177.265 695.3 183.57C699.045 189.874 708.913 188.294 714.343 193.71L714.396 193.763L714.448 193.808C720.089 199.014 718.908 208.937 725.369 212.42C731.829 215.903 739.944 210.622 739.147 194.786C738.598 183.991 742.787 176.716 736.68 170.525Z" fill="#6172F3"/>
<path d="M725.97 151.327C724.865 159.436 719.728 165.432 714.501 164.718C709.274 164.003 705.934 156.849 707.04 148.739C708.146 140.629 713.282 134.634 718.509 135.348C723.737 136.063 727.076 143.217 725.97 151.327Z" fill="#6172F3"/>
<path d="M756.287 180.418C748.232 181.862 742.456 187.241 743.389 192.454C744.321 197.668 751.602 200.729 759.657 199.225C767.712 197.72 773.488 192.402 772.555 187.188C771.622 181.975 764.342 178.973 756.287 180.418Z" fill="#6172F3"/>
<path d="M751.03 152.289C746.239 159.474 738.606 162.821 733.973 159.699C729.34 156.577 729.46 148.287 734.266 141.103C739.072 133.919 746.691 130.609 751.324 133.693C755.956 136.777 755.821 145.113 751.03 152.289Z" fill="#6172F3"/>
<path d="M754.279 155.411C747.307 160.497 744.314 168.268 747.586 172.767C750.857 177.265 759.175 176.784 766.155 171.699C773.134 166.613 776.12 158.842 772.841 154.351C769.562 149.86 761.259 150.326 754.279 155.411Z" fill="#6172F3"/>
<path d="M403.42 60.247C401.306 53.2357 410.881 54.7403 409.121 61.5259C406.428 71.915 391.349 67.8978 391.213 57.1702C391.055 44.5919 405.969 36.4597 417.536 44.6596C435.737 57.5915 419.973 85.0876 394.56 81.9656C363.521 78.159 369.816 36.0158 392.642 30.7348C397.561 29.5913 398.471 34.4586 394.214 35.6247C385.558 38.0094 379.488 48.5866 379.029 57.8924C378.149 75.7667 400.885 82.1838 413.754 70.8092C422.154 63.3766 420.996 52.8069 412.844 48.5715C405.759 44.8928 398.494 48.9477 397.11 55.2293C395.982 60.247 401.66 63.9182 403.42 60.247Z" fill="#6172F3"/>
<path d="M291.854 204.235C291.854 196.93 291.478 198.488 338.431 216.603C341.011 217.596 342.711 219.01 341.252 221.357C340.785 222.109 302.067 267.201 301.391 267.773C294.577 273.543 296.51 259.445 291.854 204.235ZM297.984 207.778C299.237 224.389 300.491 240.997 301.744 257.602C301.857 259.107 333.227 221.929 333.791 221.101C332.723 220.597 297.893 206.567 297.984 207.778Z" fill="#6172F3"/>
<path d="M164.239 26.0707C166.773 26.4618 166.36 28.6284 166.187 30.118C163.69 51.7462 183.771 18.3898 193.886 29.8772C197.286 33.7365 199.738 40.9133 204.694 38.7091C208.665 36.9412 211.974 31.8708 217.63 29.8471C224.564 27.3721 227.355 35.557 232.672 39.9654C237.245 43.7795 242.02 34.248 246.119 33.1948C246.598 33.0337 247.113 33.0134 247.604 33.1366C248.094 33.2597 248.538 33.5209 248.885 33.8893C249.231 34.2577 249.464 34.7177 249.556 35.2147C249.649 35.7116 249.596 36.2247 249.406 36.693C248.962 38.0546 246.503 40.0783 241.817 43.9751C233.183 51.1595 227.753 43.4711 222.91 37.8139C219.826 34.2104 220.127 34.0524 212.869 40.0181C210.921 41.6204 209.214 43.2078 206.597 44.2158C201.415 46.2019 196.692 43.8246 193.48 39.2959C189.72 34.0299 189.675 31.6376 185.358 34.1277C178.822 37.8891 174.58 43.11 168.706 43.0498C157.756 42.9445 159.516 25.3409 164.239 26.0707Z" fill="#6172F3"/>
<path d="M538.323 43.7719C540.88 43.8773 540.715 46.074 540.707 47.5785C540.602 69.3497 556.885 33.9847 568.204 44.2835C572.009 47.744 575.243 54.6049 579.921 51.8741C583.682 49.6774 586.397 44.2685 591.804 41.6355C598.423 38.4081 602.093 46.2319 607.846 50.031C612.81 53.3185 616.511 43.3206 620.467 41.7558C620.925 41.5454 621.434 41.4707 621.934 41.5408C622.434 41.6109 622.903 41.8227 623.286 42.1512C623.669 42.4797 623.95 42.9111 624.095 43.3944C624.241 43.8776 624.245 44.3924 624.107 44.8778C623.821 46.2771 621.602 48.564 617.338 52.9499C609.546 61.0445 603.304 54.0031 597.866 48.9101C594.399 45.6752 594.685 45.4872 588.127 52.2126C586.367 54.0181 584.848 55.786 582.358 57.0724C577.424 59.6227 572.468 57.7795 568.775 53.6344C564.473 48.8048 564.15 46.4426 560.141 49.3915C554.057 53.8601 550.417 59.5098 544.573 60.0966C533.735 61.225 533.547 43.5688 538.323 43.7719Z" fill="#6172F3"/>
<path d="M771.833 31.4044C769.667 33.0745 768.201 46.2922 763.252 44.1933C758.303 42.0944 766.967 31.1862 766.553 27.643C756.129 20.2329 751.339 19.1572 753.55 15.6064C755.761 12.0556 759.243 16.321 768.75 21.9707C770.141 21.3914 773.623 9.28714 775.466 7.67724C775.894 7.30892 776.425 7.08113 776.986 7.02475C777.548 6.96836 778.113 7.08611 778.606 7.36203C779.099 7.63795 779.495 8.05869 779.74 8.56723C779.986 9.07577 780.069 9.6475 779.978 10.2049C779.851 11.1829 779.67 11.3935 774.804 23.4001C773.969 25.4613 773.773 25.3184 775.33 26.3415C785.243 32.8714 785.784 33.1121 786.612 33.9321C787.01 34.3843 787.252 34.9522 787.303 35.5523C787.354 36.1524 787.211 36.7531 786.895 37.266C786.58 37.7788 786.108 38.1768 785.549 38.4014C784.99 38.626 784.374 38.6653 783.791 38.5135C781.655 37.9643 773.127 31.3517 771.833 31.4044Z" fill="#6172F3"/>
</g>
<defs>
<clipPath id="clip0_1047_1474">
<rect width="1954" height="1303" fill="white" transform="translate(-1124 -21)"/>
</clipPath>
</defs>
</svg>
