<svg xmlns="http://www.w3.org/2000/svg" width="1279" height="1118" fill="none" xmlns:v="https://vecta.io/nano"><g clip-path="url(#A)" fill="#d9625a"><path d="M550.063 248.905c-9.086 3.057-8.541 12.261-14.397 22.588-8.583 15.144-3.222 24.331 4.832 24.1s11.787-10.55 19.89-12.872h.074.074c8.004-2.644 16.9 3.784 23.69-.554s6.054-14.954-9.565-22.645c-10.647-5.288-15.389-13.186-24.598-10.617zm-24.136.017c7.195 5.395 10.209 13.524 6.732 18.176s-12.126 4.032-19.312-1.363-10.209-13.525-6.732-18.177 12.118-4.023 19.312 1.364zm44.092-13.583c-2.916 8.51-.826 16.929 4.65 18.804s12.291-3.495 15.198-11.996.826-16.921-4.65-18.804-12.283 3.495-15.198 11.996zm-29.794-9.956c4.336 8.428 3.444 17.532-1.991 20.325s-13.356-1.777-17.684-10.204-3.445-17.531 1.99-20.324 13.348 1.768 17.685 10.203zm4.733-1.462c1.156 9.41 7.012 16.433 13.075 15.698s10.044-8.981 8.888-18.391-7.013-16.433-13.076-15.698-10.044 8.981-8.887 18.391zm231.683-3.305c-7.434 6.04-3.692 14.475-5.551 26.199-2.717 17.201 5.526 23.918 12.985 20.878s7.335-14.046 14.108-19.044l.066-.041.058-.05c6.608-5.288 17.148-2.388 21.988-8.84s.421-16.127-16.908-17.846c-11.812-1.206-19.023-6.94-26.746-1.256zm-22.591 8.452c8.632 2.479 14.306 9.088 12.679 14.64s-9.912 8.023-18.568 5.503-14.298-9.088-12.671-14.64 9.937-8.031 18.56-5.503zm36.517-28.206c.256 8.989 5.162 16.136 10.953 15.97s10.283-7.584 10.019-16.573-5.154-16.135-10.953-15.97-10.275 7.593-10.019 16.573zm-31.395 1.14c7.021 6.37 9.383 15.202 5.278 19.73s-13.125 3.032-20.146-3.305-9.384-15.21-5.27-19.738 13.125-3.057 20.138 3.313zm3.923-3.032c4.386 8.411 12.332 12.93 17.751 10.096s6.252-11.93 1.866-20.341-12.34-12.921-17.75-10.087-6.245 11.93-1.867 20.332zm404.305 88.791c-7.67 5.709-4.33 14.293-6.7 25.926-3.47 17.069 4.47 24.141 12.05 21.431 7.59-2.71 7.95-13.682 14.94-18.399l.06-.05.06-.041c6.8-4.957 17.25-1.653 22.36-7.857 5.12-6.205 1.13-16.094-16.1-18.573-11.75-1.694-18.7-7.733-26.67-2.437zm-22.94 7.485c8.5 2.9 13.88 9.699 12.01 15.185-1.86 5.486-10.28 7.576-18.79 4.677-8.5-2.9-13.87-9.7-12.01-15.178 1.87-5.477 10.29-7.584 18.79-4.684zm58.83-26.22c.14-8.987-4.44-16.347-10.23-16.437-5.8-.09-10.6 7.124-10.74 16.112s4.44 16.346 10.23 16.436c5.8.09 10.6-7.123 10.74-16.111zm-52.51-.59c6.73 6.676 8.69 15.599 4.39 19.944s-13.22 2.479-19.98-4.23c-6.77-6.708-8.7-15.606-4.4-19.944 4.31-4.337 13.25-2.445 19.99 4.23zm4.04-2.858c4.02 8.592 11.76 13.458 17.29 10.872 5.54-2.586 6.77-11.649 2.76-20.241s-11.75-13.451-17.29-10.865c-5.53 2.586-6.77 11.625-2.76 20.234zM339.706 91.987c-5.567 7.774.24 14.938 1.537 26.736 1.891 17.349 11.613 21.629 18.006 16.722s3.395-15.45 8.607-22.076l.05-.058.049-.066c4.956-6.824 15.917-6.816 18.883-14.31s-3.833-15.698-20.997-12.765c-11.705 1.975-20.171-1.661-26.135 5.816zm-19.592 14.136c8.987.165 16.189 4.957 16.082 10.79s-7.434 10.361-16.462 10.195-16.19-4.957-16.082-10.798 7.508-10.352 16.462-10.187zm27.844-36.815c2.611 8.601 9.227 14.21 14.769 12.525s7.921-10.022 5.311-18.622-9.226-14.21-14.768-12.525-7.922 10.022-5.312 18.622zm-29.992 9.353c8.45 4.305 13.051 12.203 10.276 17.647s-11.87 6.378-20.311 2.074-13.051-12.203-10.276-17.647 11.87-6.353 20.311-2.074zm2.974-3.95c6.443 6.948 15.297 9.22 19.824 5.065s2.891-13.161-3.552-20.109-15.298-9.229-19.824-5.073-2.874 13.178 3.552 20.118zm14.331 285.383c-6.055 7.394-.735 14.921-.223 26.776.751 17.4 10.168 22.307 16.875 17.871s4.402-15.194 10.036-21.481l.057-.058.05-.058c5.386-6.485 16.33-5.783 19.824-13.037s-2.792-15.888-20.113-14.12c-11.845 1.215-20.063-2.966-26.506 4.107zm-20.443 12.814c8.953.752 15.817 6.047 15.33 11.822s-8.136 9.849-17.098 9.089-15.818-6.048-15.33-11.823 8.144-9.848 17.098-9.088zm30.173-34.907c2.041 8.758 8.26 14.789 13.91 13.475s8.566-9.485 6.525-18.242-8.259-14.781-13.909-13.467-8.566 9.476-6.526 18.234zm-30.537 7.37c8.144 4.85 12.217 13.037 9.086 18.292s-12.258 5.576-20.402.727-12.217-13.029-9.086-18.284 12.258-5.593 20.402-.735zm3.238-3.751c5.972 7.361 14.661 10.203 19.402 6.353s3.751-12.938-2.221-20.299-14.654-10.212-19.403-6.362-3.75 12.938 2.222 20.308zm-59.116 669.66c-9.483 1.23-10.738 10.36-18.511 19.35-11.366 13.22-7.896 23.24.05 24.59 7.946 1.34 13.62-8.06 22.013-8.76h.156c8.368-1.03 15.843 7 23.343 4.07s8.846-13.49-4.956-24.07c-9.441-7.28-12.563-15.96-22.095-15.18zm-23.674-4.72c6.005 6.69 7.377 15.24 3.073 19.12-4.303 3.87-12.679 1.59-18.684-5.1-6.005-6.68-7.376-15.25-3.064-19.12 4.311-3.879 12.67-1.591 18.675 5.1zm45.893-4.74c-4.51 7.77-4.13 16.43.9 19.34s12.737-1.03 17.247-8.81c4.51-7.77 4.13-16.43-.901-19.338s-12.736 1.033-17.246 8.808zm-27.291-15.575c2.618 9.088 0 17.875-5.906 19.555-5.906 1.69-12.753-4.34-15.363-13.457s0-17.863 5.905-19.548 12.754 4.337 15.364 13.45zm4.931-.504c-.693 9.452 3.684 17.479 9.78 17.929s11.564-6.858 12.291-16.309-3.684-17.483-9.78-17.929-11.597 6.849-12.291 16.309zm129.954-396.76c-7.971-5.288-14.918.76-26.663 2.478-17.231 2.479-21.204 12.393-16.082 18.59s15.561 2.85 22.368 7.832h.057l.066.049c6.997 4.702 7.368 15.698 14.959 18.375s15.521-4.379 12.027-21.44c-2.388-11.591.974-20.192-6.732-25.884zm-14.81-19.06c.148 8.989-4.428 16.35-10.218 16.449s-10.614-7.113-10.738-16.102 4.428-16.351 10.218-16.45 10.589 7.114 10.738 16.103zm37.756 26.512c-8.5 2.916-13.877 9.716-11.993 15.202s10.283 7.568 18.791 4.66 13.877-9.725 12.002-15.202-10.292-7.568-18.8-4.66zm-10.399-29.644c-3.998 8.601-11.738 13.476-17.272 10.89s-6.79-11.641-2.784-20.234 11.738-13.467 17.272-10.889 6.79 11.633 2.784 20.233zm4.056 2.842c-6.724 6.684-8.682 15.615-4.37 19.953s13.216 2.429 19.973-4.255 8.673-15.615 4.369-19.952-13.249-2.429-19.972 4.254zM71.531 816.108c-4.584 8.394 2.049 14.797 4.749 26.356 3.973 16.953 14.149 20.06 19.907 14.425s1.503-15.755 5.873-22.96v-.066l.041-.066c4.089-7.37 14.975-8.691 17.015-16.524s-5.658-15.02-22.343-10.063c-11.382 3.305-20.229.76-25.242 8.898zM53.822 832.5c8.937-.917 16.669 3.007 17.263 8.774s-6.17 11.187-15.116 12.104-16.669-2.999-17.263-8.766 6.17-11.187 15.116-12.112zm23.16-39.905c3.634 8.262 10.878 12.996 16.173 10.65s6.658-10.906 3.023-19.127-10.87-12.996-16.173-10.649-6.649 10.905-3.023 19.126zm-28.621 12.913c8.904 3.247 14.422 10.534 12.332 16.276s-11.01 7.766-19.915 4.52-14.43-10.543-12.332-16.285 10.994-7.766 19.915-4.511zm2.478-4.288c7.236 6.131 16.305 7.312 20.245 2.644s1.288-13.409-5.947-19.539-16.305-7.304-20.253-2.636-1.288 13.409 5.955 19.531zm708.894-360.953c-6.988-6.527-14.868-1.702-26.705-1.95-17.403-.363-22.946 8.716-18.915 15.698s14.868 5.37 20.766 11.401l.057.058.058.049c6.121 5.784 4.692 16.673 11.729 20.589s16.033-1.768 15.389-19.167c-.446-11.865 4.254-19.796-2.379-26.678zm-11.473-21.233c-1.33 8.89-7.054 15.4-12.786 14.541s-9.293-8.758-7.963-17.648 7.054-15.408 12.786-14.549 9.334 8.766 7.963 17.656zm32.883 32.37c-8.863 1.471-15.281 7.295-14.331 13.012s8.904 9.163 17.767 7.692 15.289-7.303 14.339-13.021-8.904-9.162-17.775-7.683zm-5.377-30.966c-5.361 7.824-13.795 11.36-18.833 7.899s-4.774-12.591.586-20.415 13.786-11.352 18.833-7.899 4.774 12.6-.586 20.415zm3.527 3.479c-7.732 5.486-11.126 13.979-7.591 18.961s12.671 4.577 20.402-.909 11.126-13.979 7.591-18.961-12.671-4.577-20.402.909zM85.936 76.86c-7.723-5.635-14.942.099-26.746 1.281-17.346 1.727-21.732 11.41-16.892 17.854s15.421 3.544 21.988 8.824l.066.049h.058c6.781 5.015 6.666 15.987 14.124 19.003s15.694-3.685 12.968-20.886c-1.842-11.65 1.85-20.093-5.567-26.124zM71.993 57.155c-.256 8.989-5.154 16.144-10.944 15.978S50.765 65.557 51.013 56.61s5.146-16.144 10.944-15.978 10.284 7.543 10.036 16.524zm36.534 28.173c-8.623 2.536-14.29 9.088-12.662 14.657s9.911 8.014 18.568 5.485 14.298-9.088 12.662-14.648-9.945-8.022-18.568-5.494zm-9.061-30.082c-4.386 8.411-12.332 12.93-17.751 10.104s-6.253-11.93-1.875-20.333S92.139 32.08 97.583 34.906s6.261 11.93 1.883 20.341zm3.915 3.024c-7.013 6.378-9.358 15.21-5.253 19.738s13.133 3.016 20.146-3.363 9.383-15.21 5.253-19.738-13.133-3.016-20.146 3.363zm558.166 947.23c-7.492-5.945-14.934-.5-26.779.2-17.346 1.04-22.169 10.54-17.593 17.17s15.272 4.13 21.624 9.69l.058.05.066.05c6.608 5.29 6.013 16.24 13.348 19.58s15.834-3.06 13.794-20.35c-1.396-11.8 2.619-20.08-4.518-26.39zm-13.15-20.263c-.611 8.965-5.782 15.923-11.564 15.523s-9.969-7.98-9.358-16.944 5.782-15.929 11.564-15.532 9.969 7.981 9.358 16.953zm35.386 29.613c-8.723 2.18-14.645 8.51-13.216 14.13 1.429 5.61 9.614 8.41 18.337 6.23 8.722-2.19 14.645-8.51 13.216-14.13s-9.615-8.41-18.337-6.23zm-7.855-30.422c-4.717 8.262-12.836 12.392-18.172 9.385s-5.782-12.17-1.066-20.398 12.828-12.393 18.172-9.386 5.782 12.17 1.066 20.399zm3.799 3.172c-7.268 6.098-9.969 14.87-6.046 19.51 3.924 4.65 13.001 3.54 20.262-2.55s9.97-14.828 6.038-19.504-12.993-3.52-20.254 2.544zm300.604-502.678c4.328-6.783 9.912 2.272 3.015 5.668-10.573 5.189-18.023-10.253-9.185-18.044 10.358-9.088 27.799-2.479 29.229 12.946 2.26 24.423-31.922 30.966-47.517 7.56-18.997-28.578 20.568-53.504 41.3-38.261 4.467 3.305 1.074 7.519-2.949 4.809-8.185-5.511-21.335-2.999-29.405 3.304-15.52 12.063-4.593 35.601 14.091 38.179 12.2 1.652 20.18-6.849 17.867-16.681-2.007-8.526-10.581-11.682-16.809-8.336-4.964 2.643-3.957 10.021.363 8.856zM616.324 678.606c-8.012-.711-2.569-9.857 3.635-5.288 9.482 6.99-.777 20.729-11.763 16.483-12.885-4.958-15.074-23.522-2.007-31.924 20.65-13.269 42.192 14.045 28.629 38.682-16.569 30.09-56.994 6.436-52.996-19.003.826-5.477 6.179-4.42 5.625.397-1.106 9.807 7.186 20.316 16.479 24.587 17.858 8.204 33.701-12.392 27.365-30.122-4.13-11.567-15.38-14.748-23.037-8.163-6.608 5.717-5.476 14.78.355 18.763 4.659 3.189 10.738-1.116 7.715-4.412zM470.362 867.192c1.066-7.973 9.912-2.132 5.122 3.858-7.393 9.171-20.65-1.652-15.942-12.476 5.542-12.648 24.152-14.045 31.974-.603 12.341 21.192-15.884 41.549-39.895 26.909-29.323-17.878-3.924-57.18 21.302-52.124 5.435 1.091 4.13 6.37-.644 5.61-9.747-1.537-20.65 6.287-25.284 15.392-8.979 17.482 10.854 34.212 28.91 28.66 11.77-3.627 15.405-14.722 9.16-22.662-5.41-6.882-14.521-6.122-18.75-.471-3.403 4.519.62 10.782 4.047 7.907zM1072.5 72.729c-2.32-7.7 8.2-6.048 6.26 1.404-2.95 11.41-19.51 6.998-19.66-4.784-.18-13.814 16.2-22.745 28.91-13.74 19.99 14.202 2.67 44.399-25.24 40.971-34.09-4.18-27.17-50.464-2.1-56.263 5.4-1.256 6.4 4.09 1.72 5.37-9.5 2.619-16.17 14.235-16.67 24.455-.97 19.63 24 26.678 38.13 14.186 9.23-8.163 7.96-19.771-1-24.422-7.78-4.04-15.76.413-17.28 7.312-1.24 5.511 5 9.543 6.93 5.511zM-26.192 279.771c-2.759-7.559 7.831-6.51 6.327 1.041-2.288 11.567-19.08 8.105-19.906-3.643-.966-13.781 14.868-23.646 28.034-15.384 20.774 13.029 5.22 44.168-22.839 42.359-34.27-2.214-30.025-48.828-5.336-56.057 5.319-1.561 6.608 3.71 2.032 5.271-9.342 3.156-15.33 15.136-15.24 25.364.165 19.655 25.499 25.257 38.88 11.972 8.747-8.675 6.814-20.201-2.404-24.323-7.987-3.586-15.694 1.322-16.825 8.262-.9 5.593 5.575 9.269 7.277 5.138zM606.511 22.43c6.36-4.891 4.75-4.181 20.46 48.819.826 2.916.768 5.337-2.255 5.643-.958.099-66.129-3.379-67.079-3.586-9.548-2.065 3.965-9.823 48.874-50.877zm1.024 7.708L566.74 66.83c-1.198 1.074 52.136 3.487 53.227 3.429-.298-1.297-11.44-41.012-12.407-40.12h-.025zM1150.33 1036.25c-3.82-7.06-3.37-5.36 51.44-12.4 3.02-.38 5.4.09 5.21 3.13-.05.96-13.87 64.75-14.23 65.65-3.57 9.13-9.07-5.49-42.42-56.38zm7.77.21l29.74 46.14c.87 1.36 11.76-50.92 11.88-52.05-1.37.13-42.34 4.8-41.62 5.91zM949.976 230.861c0-8.022-.413-6.312 51.154 13.583 2.83 1.09 4.7 2.643 3.1 5.221-.51.826-43.037 50.348-43.78 50.976-7.484 6.337-5.361-9.146-10.474-69.78zm6.732 3.891l4.13 54.719c.124 1.652 34.576-39.178 35.196-40.087-1.173-.553-39.425-15.962-39.326-14.632zM234.805 696.088c1.124-7.94.471-6.304 48.734 20.58 2.66 1.479 4.287 3.305 2.338 5.61-.62.744-49.626 43.854-50.444 44.366-8.276 5.23-4.014-9.831-.628-70.556zm6.129 4.792l-3.502 54.768c-.107 1.611 39.697-33.981 40.474-34.791-1.157-.71-36.889-21.307-36.972-19.977zM125.179 300.005c-5.137-6.164-4.369-4.577 47.957-22.373 2.883-.983 5.303-.992 5.725 2.024.14.958-.752 66.227-.917 67.185-1.669 9.667-9.962-3.577-52.765-46.836zm7.657-1.33l38.269 39.326c1.123 1.157 1.429-52.24 1.321-53.338-1.264.396-40.498 13.062-39.573 14.012h-.017zm391.811 149.804c-4.378-6.725-3.792-5.056 50.27-16.524 2.973-.636 5.377-.355 5.443 2.686 0 .966-8.574 65.673-8.855 66.599-2.816 9.369-9.482-4.751-46.858-52.761zm7.764-.413l33.354 43.565c.983 1.281 7.582-51.703 7.607-52.802-1.33.199-41.803 8.163-40.977 9.237h.016zm742.679 393.307c1.88-2.098 3.62-.421 4.9.636 18.37 15.285-.23-23.216 16.4-25.612 5.6-.826 13.67 1.24 14.61-4.634.77-4.718-1.91-10.799-.37-17.226 1.89-7.866 11.08-5.511 18.32-7.734 6.24-1.916.36-12.037 1.83-16.449a2.88 2.88 0 0 1 .84-1.397c.4-.376.91-.627 1.46-.724a2.92 2.92 0 0 1 1.62.179 2.86 2.86 0 0 1 1.26 1.025c.99 1.223 1.38 4.701 2.15 11.352 1.41 12.252-8.91 12.632-17.02 13.69-5.17.669-5.12.305-4.01 10.558.31 2.752.74 5.271.09 8.262-1.28 5.957-6.3 8.874-12.39 9.088-7.1.281-9.32-1.098-9.63 4.363-.46 8.262 1.78 15.309-1.8 20.654-6.67 10.047-21.77-2.123-18.26-6.031zM939.949 734.34c2.816 0 2.709 2.479 2.758 4.131.686 23.902 17.264-15.507 30.067-4.618 4.303 3.66 8.094 11.071 13.133 7.898 4.047-2.544 6.839-8.575 12.671-11.665 7.152-3.784 11.462 4.668 17.912 8.633 5.57 3.421 9.27-7.692 13.56-9.501a2.88 2.88 0 0 1 1.61-.313c.56.054 1.09.27 1.53.62s.76.82.94 1.352c.17.532.19 1.104.05 1.646-.27 1.553-2.62 4.131-7.1 9.088-8.26 9.162-15.37 1.652-21.52-3.726-3.92-3.421-3.62-3.635-10.567 3.982-1.867 2.049-3.469 4.04-6.162 5.552-5.319 2.974-10.829 1.132-15.033-3.305-4.898-5.147-5.336-7.725-9.631-4.345-6.517 5.122-10.309 11.459-16.702 12.318-11.911 1.578-12.761-17.796-7.516-17.747zm192.791-205.878c1.58 2.33-.47 3.619-1.8 4.594-19.28 14.144 22.58 5.387 20.89 22.117-.57 5.618-4.51 12.955.97 15.301 4.39 1.876 10.94.752 16.8 3.801 7.17 3.726 2.67 12.087 3.08 19.638.35 6.535 11.56 3.264 15.51 5.784.49.263.89.663 1.16 1.149a2.86 2.86 0 0 1 .35 1.595c-.03.554-.23 1.086-.56 1.531-.34.445-.79.785-1.31.979-1.42.661-4.89.198-11.56-.661-12.23-1.586-10.11-11.699-9.17-19.828.59-5.164.94-5.04-9.28-6.428-2.74-.372-5.29-.562-8.06-1.917-5.48-2.685-7.09-8.262-5.85-14.235 1.45-6.957 3.31-8.783-1.9-10.402-7.92-2.478-15.29-1.958-19.62-6.733-8.04-8.923 7.41-20.639 10.35-16.285zm-370.471 280.26c1.751 2.214-.199 3.644-1.454 4.718-18.172 15.54 22.913 3.701 22.475 20.497-.148 5.652-3.527 13.261 2.098 15.194 4.527 1.545 10.969-.066 17.041 2.537 7.433 3.189 3.568 11.855 4.534 19.357.826 6.494 11.795 2.388 15.901 4.585a2.91 2.91 0 0 1 1.689 2.636 2.9 2.9 0 0 1-.458 1.565c-.3.468-.727.839-1.231 1.071-1.372.76-4.865.561-11.564.198-12.308-.678-10.945-10.922-10.614-19.093.206-5.205.561-5.106-9.731-5.726-2.767-.173-5.327-.165-8.185-1.314-5.658-2.272-7.682-7.716-6.889-13.756.925-7.047 2.66-9.013-2.668-10.236-8.078-1.851-15.396-.826-20.072-5.255-8.673-8.262 5.865-21.092 9.128-16.978zm156.468 245.388c1.495-2.39 3.502-1.03 4.956-.2 20.707 11.94-4.13-22.84 11.82-28.04 5.369-1.74 13.67-1.09 13.612-7.05-.049-4.77-3.725-10.32-3.304-16.91.521-8.072 9.986-7.32 16.735-10.741 5.831-2.949-1.652-11.921-.991-16.523.047-.553.252-1.08.59-1.52a2.9 2.9 0 0 1 2.943-1.059c.54.123 1.034.399 1.423.794 1.181 1.041 2.155 4.395 4.039 10.823 3.477 11.831-6.608 13.963-14.447 16.386-4.956 1.53-4.956 1.17-2.148 11.08.76 2.67 1.652 5.08 1.495 8.16-.256 6.09-4.708 9.81-10.671 11.08-6.947 1.48-9.375.5-8.748 5.94.95 8.26 4.362 14.78 1.743 20.65-4.898 11-21.839 1.57-19.047-2.87zM809.821 35.195c2.784.43 2.33 2.809 2.14 4.445-2.743 23.753 19.312-12.88 30.421-.264 3.734 4.238 6.426 12.12 11.87 9.699 4.361-1.942 7.995-7.51 14.207-9.733 7.616-2.718 10.68 6.271 16.52 11.112 5.022 4.189 10.267-6.279 14.769-7.436a2.9 2.9 0 0 1 3.036.763 2.89 2.89 0 0 1 .738 1.456 2.9 2.9 0 0 1-.165 1.624c-.487 1.495-3.188 3.718-8.334 7.997-9.483 7.89-15.446-.554-20.766-6.766-3.386-3.958-3.056-4.131-11.027 2.421-2.139 1.76-4.014 3.503-6.889 4.61-5.691 2.181-10.878-.43-14.405-5.403-4.13-5.783-4.179-8.411-8.921-5.676-7.178 4.131-11.836 9.865-18.287 9.799-12.027-.116-10.094-19.448-4.907-18.647zm410.839 19.44c2.81.116 2.63 2.528 2.62 4.181-.11 23.91 17.77-14.929 30.2-3.619 4.18 3.8 7.73 11.335 12.87 8.336 4.13-2.412 7.11-8.353 13.05-11.244 7.27-3.544 11.3 5.048 17.62 9.22 5.45 3.61 9.51-7.37 13.86-9.088.5-.231 1.06-.313 1.61-.236s1.06.31 1.48.67a2.91 2.91 0 0 1 .91 2.994c-.32 1.537-2.75 4.048-7.44 8.865-8.56 8.89-15.41 1.157-21.38-4.437-3.81-3.553-3.5-3.759-10.7 3.627-1.93 1.983-3.6 3.924-6.34 5.337-5.41 2.801-10.86.777-14.91-3.776-4.73-5.304-5.08-7.898-9.49-4.66-6.68 4.908-10.68 11.112-17.09 11.757-11.91 1.239-12.11-18.151-6.87-17.928zM828.72 634.653c-.735 2.916 6.98 15.325 1.28 16.87s-5.625-13.748-8.367-16.524c-14.042.686-18.891 3.024-19.378-1.52s5.394-3.255 17.437-4.841c.826-1.454-4.411-14.26-3.891-16.871.113-.616.414-1.182.862-1.621a3.02 3.02 0 0 1 1.638-.826 3.03 3.03 0 0 1 1.815.27c.562.276 1.026.719 1.327 1.268.553.934.537 1.231 4.493 14.872.678 2.338.413 2.354 2.478 2.181 12.993-1.107 13.613-1.289 14.868-1.099a3.09 3.09 0 0 1 1.693.93c.45.483.734 1.097.81 1.753a3.1 3.1 0 0 1-.389 1.892 3.09 3.09 0 0 1-1.437 1.291c-2.312.967-14.157 1.033-15.239 1.975zM10.242 1081.58c-2.693-1.33-16.437 3.62-16.751-2.28-.33-6.03 14.62-2.62 17.866-4.73 2.272-13.86 1.008-19.11 5.559-18.64 4.551.48 2.049 5.97 1.074 18.07 1.247 1.1 14.868-1.32 17.305-.26a3.03 3.03 0 0 1 1.868 2.96c-.033.62-.258 1.22-.646 1.72a3.06 3.06 0 0 1-1.52 1.03c-1.024.34-1.313.27-15.512 1.27-2.437.17-2.387-.09-2.643 1.94-1.652 12.93-1.602 13.58-2.048 14.76-.255.61-.697 1.12-1.263 1.45a3.1 3.1 0 0 1-1.88.43 3.13 3.13 0 0 1-1.766-.77 3.11 3.11 0 0 1-.964-1.67c-.396-2.43 1.999-14.02 1.322-15.28zM1143.99 813.498c-3.01 0-13.03 10.666-15.99 5.552-2.95-5.115 11.86-8.956 13.8-12.302-4.24-13.393-7.73-17.499-3.47-19.135s4.52 4.387 9.13 15.623c1.65.413 12.66-7.906 15.32-8.072a3.05 3.05 0 0 1 1.79.421c.53.321.96.802 1.21 1.376.26.574.33 1.212.2 1.827-.12.615-.43 1.176-.89 1.606-.76.769-1.05.826-13.26 8.155-2.09 1.256-2.17.999-1.48 2.924 4.39 12.278 4.72 12.831 4.85 14.087.05.658-.11 1.316-.46 1.875a3.08 3.08 0 0 1-1.49 1.235c-.61.242-1.29.28-1.92.11-.64-.17-1.21-.54-1.62-1.055-1.45-1.983-4.56-13.418-5.72-14.227zM92.437 524.009c-2.073-2.173-16.685-2.255-14.95-7.898 1.759-5.783 14.628 2.561 18.403 1.702 6.888-12.244 7.508-17.598 11.613-15.59s-.124 6.295-5.195 17.35c.826 1.462 14.413 3.866 16.346 5.7a3.03 3.03 0 0 1 .92 1.593 3.02 3.02 0 0 1-.172 1.83c-.246.578-.666 1.065-1.201 1.393a3.02 3.02 0 0 1-1.785.439c-1.082 0-1.33-.198-15.009-4.131-2.346-.669-2.205-.901-3.147.917-5.989 11.567-6.162 12.203-6.988 13.161-.45.494-1.048.828-1.704.953a3.09 3.09 0 0 1-3.329-1.625c-.305-.595-.408-1.272-.296-1.93.463-2.38 6.691-12.451 6.492-13.864z" fill-opacity=".06"/></g><defs><clipPath id="A"><path fill="#fff" transform="translate(-605 -16.5)" d="M0 0h2146v1431H0z"/></clipPath></defs></svg>