<svg width="57" height="57" fill="none" xmlns="http://www.w3.org/2000/svg"><rect x="4.5" y="4.75317" width="48" height="48" rx="24" fill="#FAE7E6"/><rect x="4.5" y="4.75317" width="48" height="48" rx="24" stroke="#FCF5F4" stroke-width="8"/><path d="M25.5 37.7532v-7.4c0-.5601 0-.8401.109-1.054.0959-.1882.2489-.3412.437-.437.2139-.109.494-.109 1.054-.109h2.8c.5601 0 .8401 0 1.054.109.1882.0958.3411.2488.437.437.109.2139.109.4939.109 1.054v7.4m-13-11.5 9.04-6.78c.3443-.2582.5164-.3873.7054-.4371.1669-.0439.3423-.0439.5092 0 .189.0498.3611.1789.7054.4371l9.04 6.78m-18-1.5v9.8c0 1.1201 0 1.6801.218 2.108.1917.3763.4977.6822.874.874.4278.218.9879.218 2.108.218h9.6c1.1201 0 1.6802 0 2.108-.218.3763-.1918.6823-.4977.874-.874.218-.4279.218-.9879.218-2.108v-9.8l-6.08-4.56c-.6885-.5164-1.0328-.7746-1.4109-.8741-.3337-.0879-.6845-.0879-1.0182 0-.3781.0995-.7224.3577-1.4109.8741l-6.08 4.56Z" stroke="#D9625A" stroke-width="2" stroke-linecap="round" stroke-linejoin="round"/></svg>
