<svg viewBox="0 0 24 24" fill="none" xmlns="http://www.w3.org/2000/svg"><path d="M11.9998 8.99999V13m0 4h.01M10.6151 3.89171 2.39019 18.0983c-.45621.788-.68431 1.182-.6506 1.5054.02941.282.17718.5383.40654.7051.26295.1912.71822.1912 1.62874.1912H20.2246c.9106 0 1.3658 0 1.6288-.1912.2293-.1668.3771-.4231.4065-.7051.0337-.3234-.1944-.7174-.6506-1.5054L13.3844 3.89171c-.4545-.78517-.6818-1.17775-.9783-1.3096-.2587-.11501-.554-.11501-.8126 0-.2966.13185-.5239.52444-.9784 1.3096Z" stroke="#D8625A" stroke-width="2" stroke-linecap="round" stroke-linejoin="round"/></svg>
