<svg width="93" height="80" fill="none" xmlns="http://www.w3.org/2000/svg"><path d="M19.2445 54.7398c9.1843 6.9097 20.3961 15.1327 33.9087 12.9806 5.6865-.906 10.768-3.8799 14.0892-8.1298 3.6546-4.6925 4.4363-10.042 3.141-15.3147-.8803-3.5777-2.4477-7.0591-4.5536-10.2176-3.8693.549-7.8289.5398-11.4163.0367-5.8996-.824-14.6704-3.6848-13.3125-10.3394.6129-2.9855 3.4566-4.9171 6.8288-4.9969 3.4823-.0777 6.9183 1.527 9.6901 3.1024 3.9881 2.2703 7.2744 5.3555 9.8883 8.8356.8401-.1723 1.6749-.3694 2.4948-.5891 2.9291-.7948 6.0101-2.0877 7.9821-4.2712 2.0341-2.2657 2.3176-5.0682 1.6068-7.6738-1.5768-5.7466-7.2615-10.10836-12.9085-12.8144-1.8667-.89102.0576-3.43487 1.9147-2.5418 6.0338 2.88138 11.6248 7.4099 13.8628 13.2641 1.0083 2.6449 1.2865 5.6022.147 8.365-1.1866 2.8677-3.7289 5.0877-6.7125 6.6011-2.0134 1.0199-4.2281 1.7987-6.5212 2.353.43.7005.841 1.4051 1.2156 2.1261 3.1094 5.8734 5.0829 12.7674 2.8519 19.3946-1.8378 5.4908-6.3635 10.3967-12.0758 13.2652-7.3676 3.6991-16.1829 3.4083-23.5971 1.014-8.1097-2.6153-14.6764-7.5543-21.089-12.3799-1.6056-1.2059.9722-3.2612 2.5647-2.0698Zm43.3396-24.8272c-1.7903-1.9248-3.832-3.6747-6.1712-5.0932-2.3053-1.4-5.1652-2.9219-8.1008-3.0827-2.9242-.1546-4.6408 1.9652-3.7213 4.3362.9123 2.3379 3.9846 3.5038 6.4634 4.2284 4.0104 1.1707 8.3917 1.4252 12.7079.961-.3863-.4513-.7744-.9108-1.178-1.3497Z" fill="#8098F9"/><path d="M8.90152 45.4591c8.96698 2.0599 14.51138 3.2708 21.71968 5.5888.8466.2745 1.2663 1.1583.9707 1.8685-.3488.8338-1.7981 1.2322-2.6532 1.0112-6.7382-1.7555-10.5299-2.6974-18.3284-4.7934 1.2611 5.0215 2.3603 10.0779 3.2671 15.1671.3326 1.868-2.8462 2.4752-3.3408.6421-1.63715-6.0268-2.51915-11.0007-3.92318-17.75-.22827-1.106 1.11285-2.007 2.2881-1.7343Z" fill="#8098F9"/></svg>
