<svg width="48" height="49" fill="none" xmlns="http://www.w3.org/2000/svg"><rect y=".5" width="48" height="48" rx="24" fill="#F6F3F0"/><rect x=".375" y=".875" width="47.25" height="47.25" rx="23.625" stroke="#101828" stroke-width=".75" opacity=".08"/><path d="M33.3337 35c0-1.6282 0-2.4422-.201-3.1047-.4524-1.4914-1.6196-2.6586-3.111-3.111-.6625-.201-1.4765-.201-3.1047-.201h-5.8333c-1.6282 0-2.4423 0-3.1047.201-1.4915.4524-2.6586 1.6196-3.1111 3.111-.2009.6625-.2009 1.4765-.2009 3.1047m14.5833-15.75c0 2.8995-2.3505 5.25-5.25 5.25s-5.25-2.3505-5.25-5.25 2.3505-5.25 5.25-5.25 5.25 2.3505 5.25 5.25Z" stroke="#4F3534" stroke-width="2" stroke-linecap="round" stroke-linejoin="round"/></svg>
