<svg width="24" height="20" viewBox="0 0 24 20" fill="none" xmlns="http://www.w3.org/2000/svg">
<path d="M0.953125 3.91152C0.953125 2.55842 2.05003 1.46152 3.40313 1.46152H20.5979C21.9509 1.46152 23.0479 2.55842 23.0479 3.91152V16.0884C23.0479 17.4415 21.9509 18.5385 20.5979 18.5385H3.40313C2.05003 18.5385 0.953125 17.4415 0.953125 16.0885V3.91152Z" stroke="#4F3534" stroke-width="1.5"/>
<path d="M1.30664 5.69998H22.7881" stroke="#4F3534" stroke-width="1.5" stroke-miterlimit="10" stroke-linecap="round" stroke-linejoin="round"/>
<path d="M14.1416 11.8648H19.6406" stroke="#4F3534" stroke-width="1.5" stroke-miterlimit="10" stroke-linecap="round" stroke-linejoin="round"/>
<path d="M14.1416 14.6773H19.6406" stroke="#4F3534" stroke-width="1.5" stroke-miterlimit="10" stroke-linecap="round" stroke-linejoin="round"/>
<path d="M8.96819 13.8701C8.96819 14.78 8.10805 15.2427 7.0466 15.2427C5.98514 15.2427 5.125 14.78 5.125 13.8701C5.125 12.9602 5.98514 11.9485 7.0466 11.9485C8.10732 11.9485 8.96819 12.9602 8.96819 13.8701Z" stroke="#4F3534" stroke-width="1.5" stroke-miterlimit="10" stroke-linecap="round" stroke-linejoin="round"/>
<path d="M7.93016 9.17396C7.93016 9.66221 7.53389 10.0585 7.04564 10.0585C6.55739 10.0585 6.16113 9.66221 6.16113 9.17396C6.16113 8.68571 6.55739 8.28945 7.04564 8.28945C7.53389 8.28945 7.93016 8.68571 7.93016 9.17396Z" fill="#4F3534"/>
<path d="M5.06409 9.51991C5.34399 9.9201 5.24729 10.4713 4.84709 10.7519C4.4469 11.0318 3.89575 10.9351 3.61507 10.5349C3.33517 10.1347 3.43188 9.5836 3.83207 9.30291C4.23226 9.02223 4.78341 9.11972 5.06409 9.51991Z" fill="#4F3534"/>
<path d="M9.0262 9.51991C8.7463 9.9201 8.84301 10.4713 9.2432 10.7519C9.64339 11.0318 10.1945 10.9351 10.4752 10.5349C10.7551 10.1347 10.6584 9.5836 10.2582 9.30291C9.85803 9.02223 9.30689 9.11972 9.0262 9.51991Z" fill="#4F3534"/>
</svg>

