<svg width="24" height="24" fill="none" xmlns="http://www.w3.org/2000/svg"><path d="M21 10H3m13-8v4M8 2v4m-.2 16h8.4c1.6802 0 2.5202 0 3.162-.327.5645-.2876 1.0234-.7465 1.311-1.311C21 19.7202 21 18.8802 21 17.2V8.8c0-1.68016 0-2.52024-.327-3.16197-.2876-.56449-.7465-1.02343-1.311-1.31105C18.7202 4 17.8802 4 16.2 4H7.8c-1.68016 0-2.52024 0-3.16197.32698-.56449.28762-1.02343.74656-1.31105 1.31105C3 6.27976 3 7.11984 3 8.8v8.4c0 1.6802 0 2.5202.32698 3.162.28762.5645.74656 1.0234 1.31105 1.311C5.27976 22 6.11984 22 7.8 22Z" stroke="#4F3534" stroke-width="2" stroke-linecap="round" stroke-linejoin="round"/></svg>
