<svg width="18" height="19" viewBox="0 0 18 19" fill="none" xmlns="http://www.w3.org/2000/svg"><path d="M12.3333 4.09179V3.42512C12.3333 2.4917 12.3333 2.02499 12.1517 1.66847C11.9919 1.35487 11.7369 1.0999 11.4233 0.940109C11.0668 0.758453 10.6001 0.758453 9.66667 0.758453H8.33333C7.39991 0.758453 6.9332 0.758453 6.57668 0.940109C6.26308 1.0999 6.00811 1.35487 5.84832 1.66847C5.66667 2.02499 5.66667 2.4917 5.66667 3.42512V4.09179M7.33333 8.67512V12.8418M10.6667 8.67512V12.8418M1.5 4.09179H16.5M14.8333 4.09179V13.4251C14.8333 14.8253 14.8333 15.5253 14.5608 16.0601C14.3212 16.5305 13.9387 16.913 13.4683 17.1526C12.9335 17.4251 12.2335 17.4251 10.8333 17.4251H7.16667C5.76654 17.4251 5.06647 17.4251 4.53169 17.1526C4.06129 16.913 3.67883 16.5305 3.43915 16.0601C3.16667 15.5253 3.16667 14.8253 3.16667 13.4251V4.09179" stroke="#83594B" stroke-width="1.4" stroke-linecap="round" stroke-linejoin="round"/></svg>
