<svg width="22" height="24" fill="none" xmlns="http://www.w3.org/2000/svg"><path d="M16 4c.93 0 1.395 0 1.7765.10222 1.0352.2774 1.8439 1.08605 2.1213 2.12132C20 6.60504 20 7.07003 20 8v9.2c0 1.6802 0 2.5202-.327 3.162-.2876.5645-.7465 1.0234-1.311 1.311C17.7202 22 16.8802 22 15.2 22H8.8c-1.68016 0-2.52024 0-3.16197-.327-.56449-.2876-1.02343-.7465-1.31105-1.311C4 19.7202 4 18.8802 4 17.2V8c0-.92997 0-1.39496.10222-1.77646.2774-1.03527 1.08605-1.84392 2.12132-2.12132C6.60504 4 7.07003 4 8 4m1.6 2h4.8c.5601 0 .8401 0 1.054-.10899.1882-.09588.3411-.24886.437-.43702C16 5.24008 16 4.96005 16 4.4v-.8c0-.56005 0-.84008-.109-1.05399-.0959-.18816-.2488-.34114-.437-.43702C15.2401 2 14.9601 2 14.4 2H9.6c-.56005 0-.84008 0-1.05399.10899-.18816.09588-.34114.24886-.43702.43702C8 2.75992 8 3.03995 8 3.6v.8c0 .56005 0 .84008.10899 1.05399.09588.18816.24886.34114.43702.43702C8.75992 6 9.03995 6 9.6 6Z" stroke="#4F3534" stroke-width="1.5" stroke-linecap="round" stroke-linejoin="round"/></svg>
