<svg width="22" height="23" fill="none" xmlns="http://www.w3.org/2000/svg"><path d="M6.875 9.715h.00917M11 9.715h.0092m4.1158 0h.0092M9.075 17.69l1.3383 1.7844c.1991.2654.2986.3981.4206.4455.1068.0416.2254.0416.3322 0 .122-.0474.2215-.1801.4206-.4455L12.925 17.69c.2687-.3583.4031-.5374.567-.6742.2185-.1824.4765-.3114.7535-.3768.2077-.049.4316-.049.8795-.049 1.2813 0 1.922 0 2.4274-.2093.6738-.2791 1.2092-.8145 1.4883-1.4883.2093-.5054.2093-1.1461.2093-2.4274V7.24c0-1.54015 0-2.31022-.2997-2.89848-.2637-.51744-.6844-.93814-1.2018-1.20179C17.1602 2.84 16.3901 2.84 14.85 2.84h-7.7c-1.54014 0-2.31022 0-2.89847.29973-.51745.26365-.93815.68435-1.2018 1.20179C2.75 4.92978 2.75 5.69985 2.75 7.24v5.225c0 1.2813 0 1.922.20933 2.4274.27911.6738.81446 1.2092 1.48829 1.4883.50537.2093 1.14604.2093 2.42738.2093.44786 0 .6718 0 .87955.049.277.0654.53497.1944.75349.3768.16388.1368.29824.3159.56696.6742ZM7.33333 9.715c0 .25313-.2052.4583-.45833.4583s-.45833-.20517-.45833-.4583c0-.25313.2052-.45834.45833-.45834s.45833.20521.45833.45834Zm4.12497 0c0 .25313-.2052.4583-.4583.4583s-.4583-.20517-.4583-.4583c0-.25313.2052-.45834.4583-.45834s.4583.20521.4583.45834Zm4.125 0c0 .25313-.2052.4583-.4583.4583s-.4583-.20517-.4583-.4583c0-.25313.2052-.45834.4583-.45834s.4583.20521.4583.45834Z" stroke="#4F3534" stroke-width="1.5" stroke-linecap="round" stroke-linejoin="round"/></svg>
