<svg xmlns="http://www.w3.org/2000/svg" width="24" height="24" color="#000" fill="none"><path d="M8.6671 22c.53397-.534 1.06795-1.0679.57417-4m-.57417-2.6664c-1.33329-5.3332-.33332-6.33318 0-6.6665.33332-.33332 1.3333-1.33329 6.6665 0m-6.6665 6.6665C3.33394 14.0003 2.66664 14.6663 2 15.3329m6.6671.0007c5.3332 1.3332 6.3325.3326 6.6658-.0007.3333-.3333 1.3339-1.3326.0007-6.6658m6.6664 0c-.6666.66665-1.3333 1.3333-6.6664 0M15.3329 2c-.5339.53394-1.0675 1.06829-.5737 4" stroke="#4F3534" stroke-width="2" stroke-linecap="round"/></svg>
