<svg width="20" height="18" fill="none" xmlns="http://www.w3.org/2000/svg"><path d="M18.7083 14.5 12.619 9.00001m-5.23805 0L1.29169 14.5M.833328 4.41667 8.31784 9.65583c.60607.42427.90911.63637 1.23873.71857.29116.0725.59573.0725.88683 0 .3296-.0822.6327-.2943 1.2388-.71857l7.4845-5.23916M5.23333 16.3333h9.53337c1.5401 0 2.3102 0 2.8984-.2997.5175-.2636.9382-.6843 1.2018-1.2018.2998-.5882.2998-1.3583.2998-2.8985V6.06667c0-1.54014 0-2.31021-.2998-2.89847-.2636-.51745-.6843-.93814-1.2018-1.2018-.5882-.29973-1.3583-.29973-2.8984-.29973H5.23333c-1.54015 0-2.31022 0-2.89848.29973-.51744.26366-.93814.68435-1.20179 1.2018-.299732.58826-.299732 1.35833-.299732 2.89847v5.86663c0 1.5402 0 2.3103.299732 2.8985.26365.5175.68435.9382 1.20179 1.2018.58826.2997 1.35833.2997 2.89848.2997Z" stroke="#4F3534" stroke-width="1.4" stroke-linecap="round" stroke-linejoin="round"/></svg>
