<svg width="24" height="25" fill="none" xmlns="http://www.w3.org/2000/svg"><g clip-path="url(#a)"><path d="M12 24.1155c6.6274 0 12-5.3726 12-12C24 5.48806 18.6274.115479 12 .115479 5.37258.115479 0 5.48806 0 12.1155c0 6.6274 5.37258 12 12 12Z" fill="#F0F0F0"/><path d="M2.48069 4.80847C1.53808 6.03486.827311 7.44838.413452 8.98396H6.65617L2.48069 4.80847ZM23.587 8.98403c-.4139-1.53553-1.1247-2.94905-2.0672-4.17544l-4.1754 4.17544h6.2426ZM.413452 15.2457c.413907 1.5356 1.124668 2.9491 2.067238 4.1754l4.17534-4.1754H.413452ZM19.3056 2.59524C18.0792 1.65263 16.6657.941861 15.1301.527954V6.77063l4.1755-4.17539ZM4.69397 21.6331c1.22639.9426 2.63991 1.6534 4.17544 2.0673v-6.2426l-4.17544 4.1753ZM8.86936.527954C7.33383.94186 5.92031 1.65263 4.69397 2.59519l4.17539 4.17539V.527954ZM15.1301 23.7004c1.5356-.4139 2.9491-1.1247 4.1754-2.0672l-4.1754-4.1754v6.2426ZM17.3444 15.2457l4.1754 4.1755c.9425-1.2264 1.6533-2.6399 2.0672-4.1755h-6.2426Z" fill="#0052B4"/><path d="M23.8984 10.5503H13.5653V.217057C13.0529.150354 12.5305.115479 12 .115479c-.5306 0-1.0529.034875-1.5652.101578V10.5502H.101578C.034875 11.0626 0 11.585 0 12.1155c0 .5306.034875 1.0528.101578 1.5652H10.4347v10.3332c.5124.0667 1.0347.1016 1.5653.1016.5305 0 1.0529-.0348 1.5652-.1016V13.6807h10.3332c.0667-.5124.1016-1.0346.1016-1.5652 0-.5305-.0349-1.0529-.1016-1.5652Z" fill="#D80027"/><path d="m15.1304 15.2468 5.3548 5.3548c.2463-.2462.4813-.5036.7054-.7704l-4.5844-4.5845h-1.4758v.0001ZM8.86951 15.2467h-.0001l-5.35476 5.3548c.24619.2463.50358.4812.77039.7053l4.58447-4.5845v-1.4756ZM8.86939 8.98459V8.9845L3.51458 3.62964c-.24628.24619-.48122.50358-.70538.77039l4.58452 4.58451h1.47567v.00005ZM15.1304 8.98565l5.3549-5.35491c-.2462-.24628-.5036-.48122-.7704-.70532l-4.5845 4.58451v1.47572Z" fill="#D80027"/></g><defs><clipPath id="a"><path fill="#fff" transform="translate(0 .115479)" d="M0 0h24v24H0z"/></clipPath></defs></svg>
