<svg viewBox="0 0 24 24" fill="none" xmlns="http://www.w3.org/2000/svg"><path d="M2.42012 12.7132c-.13618-.2157-.20428-.3235-.2424-.4898-.02863-.1249-.02863-.3219 0-.4468.03812-.1663.10622-.2741.2424-.4898C3.54553 9.50484 6.8954 5 12.0004 5s8.4549 4.50484 9.5803 6.2868c.1362.2157.2043.3235.2424.4898.0286.1249.0286.3219 0 .4468-.0381.1663-.1062.2741-.2424.4898C20.4553 14.4952 17.1054 19 12.0004 19c-5.105 0-8.45487-4.5048-9.58028-6.2868Z" stroke="#4f3534" stroke-width="2" stroke-linecap="round" stroke-linejoin="round"/><path d="M12.0004 15c1.6569 0 3-1.3431 3-3s-1.3431-3-3-3-3 1.3431-3 3 1.3431 3 3 3Z" stroke="#4f3534" stroke-width="2" stroke-linecap="round" stroke-linejoin="round"/></svg>
