<svg width="22" height="21" fill="none" xmlns="http://www.w3.org/2000/svg"><path d="M9.56034 16.4322H11.853V10.884h1.5291l.2028-1.91156H11.853l.002-.95749c0-.49855.0478-.76558.7629-.76558h.9561V5.33713h-1.5298c-1.8371 0-2.48386.92744-2.48386 2.48728v1.14803h-1.1453v1.91226h1.1453v5.5475Z" fill="#4F3534"/><path d="M11 1.99607c4.9011 0 8.8887 3.98765 8.8887 8.88873 0 4.901-3.9876 8.8887-8.8887 8.8887-4.90102 0-8.88867-3.9877-8.88867-8.8887 0-4.90108 3.98765-8.88873 8.88867-8.88873Zm0-1.005915c-5.46488 0-9.89458 4.429695-9.89458 9.894645 0 5.4649 4.4297 9.8946 9.89458 9.8946 5.4649 0 9.8946-4.4297 9.8946-9.8946 0-5.46495-4.4297-9.894645-9.8946-9.894645Z" fill="#4F3534" stroke="#4F3534" stroke-width=".4"/></svg>
