<svg width="24" height="24" viewBox="0 0 24 24" fill="none" xmlns="http://www.w3.org/2000/svg">
<path d="M4.42224 13.0051L7.26453 10.1628C8.3518 10.9771 9.70721 11.3494 11.0579 11.2045C12.4086 11.0597 13.6542 10.4085 14.5441 9.38218C15.434 8.35582 15.902 7.03045 15.854 5.67288C15.806 4.31531 15.2454 3.02634 14.2852 2.06545C13.325 1.10456 12.0364 0.543101 10.6789 0.4941C9.32133 0.445099 7.99563 0.912193 6.96865 1.80135C5.94166 2.69051 5.28964 3.93572 5.14385 5.28629C4.99805 6.63687 5.36931 7.99253 6.18288 9.08038L3.33982 11.9234L2.25741 10.8403C2.11377 10.6967 1.91899 10.6161 1.71593 10.6162C1.51287 10.6163 1.31815 10.697 1.17461 10.8406C1.03107 10.9843 0.950476 11.1791 0.950547 11.3821C0.950619 11.5852 1.03135 11.7799 1.17499 11.9234L2.25741 13.0066L0.742487 14.5208C0.669374 14.5914 0.611056 14.6759 0.570937 14.7693C0.530818 14.8626 0.509701 14.9631 0.508818 15.0647C0.507935 15.1664 0.527303 15.2672 0.565793 15.3613C0.604283 15.4553 0.661124 15.5408 0.732998 15.6127C0.804873 15.6846 0.890342 15.7414 0.984419 15.7799C1.0785 15.8184 1.1793 15.8377 1.28094 15.8369C1.38258 15.836 1.48303 15.8149 1.57642 15.7747C1.66982 15.7346 1.75429 15.6763 1.8249 15.6032L3.33982 14.0883L4.42224 15.1707C4.49285 15.2438 4.57732 15.3021 4.67072 15.3422C4.76411 15.3824 4.86456 15.4035 4.9662 15.4044C5.06784 15.4052 5.16864 15.3859 5.26272 15.3474C5.3568 15.3089 5.44227 15.252 5.51414 15.1802C5.58602 15.1083 5.64286 15.0228 5.68135 14.9288C5.71984 14.8347 5.7392 14.7339 5.73832 14.6322C5.73744 14.5306 5.71632 14.4301 5.6762 14.3367C5.63608 14.2434 5.57777 14.1589 5.50465 14.0883L4.42224 13.0051ZM10.4697 2.04851C11.2267 2.04851 11.9667 2.27299 12.5961 2.69356C13.2255 3.11413 13.7161 3.7119 14.0058 4.41128C14.2955 5.11067 14.3713 5.88025 14.2236 6.62271C14.0759 7.36517 13.7114 8.04716 13.1761 8.58245C12.6408 9.11773 11.9588 9.48227 11.2164 9.62995C10.4739 9.77764 9.70434 9.70184 9.00496 9.41214C8.30558 9.12245 7.7078 8.63187 7.28723 8.00244C6.86666 7.37302 6.64218 6.63301 6.64218 5.876C6.64218 4.86089 7.04544 3.88735 7.76323 3.16956C8.48102 2.45176 9.45456 2.04851 10.4697 2.04851Z" fill="#4F3534"/>
<path d="M22.7172 8.17249H18.8897C18.6867 8.17249 18.492 8.25314 18.3484 8.39669C18.2049 8.54025 18.1242 8.73496 18.1242 8.93798C18.1242 9.14101 18.2049 9.33571 18.3484 9.47927C18.492 9.62283 18.6867 9.70348 18.8897 9.70348H20.8693L16.7356 13.8372C15.648 13.0233 14.2925 12.6516 12.9419 12.797C11.5913 12.9423 10.3459 13.594 9.45644 14.6206C8.56696 15.6473 8.09943 16.9728 8.14796 18.3304C8.1965 19.6879 8.7575 20.9766 9.71803 21.9372C10.6786 22.8977 11.9673 23.4587 13.3248 23.5072C14.6824 23.5558 16.0079 23.0882 17.0346 22.1988C18.0613 21.3093 18.7129 20.0639 18.8582 18.7133C19.0036 17.3627 18.6319 16.0072 17.818 14.9196L21.9517 10.7859V12.7655C21.9517 12.9685 22.0324 13.1632 22.1759 13.3068C22.3195 13.4503 22.5142 13.531 22.7172 13.531C22.9202 13.531 23.1149 13.4503 23.2585 13.3068C23.4021 13.1632 23.4827 12.9685 23.4827 12.7655V8.93798C23.4827 8.73496 23.4021 8.54025 23.2585 8.39669C23.1149 8.25314 22.9202 8.17249 22.7172 8.17249ZM13.5312 21.9515C12.7742 21.9515 12.0342 21.727 11.4048 21.3064C10.7754 20.8858 10.2848 20.2881 9.99509 19.5887C9.7054 18.8893 9.6296 18.1197 9.77729 17.3773C9.92497 16.6348 10.2895 15.9528 10.8248 15.4175C11.3601 14.8822 12.0421 14.5177 12.7845 14.37C13.527 14.2223 14.2966 14.2981 14.996 14.5878C15.6953 14.8775 16.2931 15.3681 16.7137 15.9975C17.1342 16.627 17.3587 17.367 17.3587 18.124C17.3587 18.6266 17.2597 19.1243 17.0674 19.5887C16.875 20.0531 16.5931 20.475 16.2377 20.8304C15.8823 21.1858 15.4603 21.4678 14.996 21.6601C14.5316 21.8525 14.0339 21.9515 13.5312 21.9515Z" fill="#4F3534"/>
</svg>
