<svg width="25" height="26" fill="none" xmlns="http://www.w3.org/2000/svg"><path d="m24.771 11.4143-10.3331.0215h-.0001l-.0215-10.33316c-.5126-.06563-1.035-.09941-1.5655-.09831-.5305.00111-1.0528.03708-1.565.10485l.0216 10.33312-10.333206.0216c-.065633.5125-.099418 1.035-.09831 1.5655.001108.5305.037073 1.0527.104846 1.5649l10.33307-.0215h.0001l.0216 10.3332c.5125.0656 1.0349.0994 1.5654.0983.5305-.0011 1.0528-.037 1.565-.1049l-.0216-10.3331 10.3332-.0216c.0657-.5125.0994-1.0349.0983-1.5654-.0011-.5305-.037-1.0528-.1048-1.565Z" fill="#D80027"/><path d="m8.16704 6.75396-.00327-1.56524-1.5652.00326.00327 1.56525-1.56525.00327.00327 1.5652 1.56525-.00327.00327 1.5652 1.5652-.00327-.00327-1.5652 1.5652-.00327-.00327-1.5652-1.5652.00327ZM19.1237 6.73107l-.0033-1.56524-1.5652.00327.0033 1.56524-1.5652.00327.0032 1.5652 1.5652-.00327.0033 1.5652 1.5652-.00327-.0033-1.5652 1.5653-.00326-.0033-1.5652-1.5652.00326ZM8.18999 17.7108l-.00327-1.5652-1.5652.0032.00327 1.5652-1.56525.0033.00327 1.5652 1.56525-.0033.00326 1.5653 1.5652-.0033-.00326-1.5652 1.5652-.0033-.00327-1.5652-1.5652.0033ZM19.1465 17.6879l-.0033-1.5652-1.5652.0033.0033 1.5652-1.5652.0032.0033 1.5652 1.5652-.0032.0032 1.5652 1.5652-.0032-.0032-1.5653 1.5652-.0033-.0033-1.5652-1.5652.0033Z" fill="#D80027"/></svg>
