<svg width="14" height="16" viewBox="0 0 14 16" fill="none" xmlns="http://www.w3.org/2000/svg"><path d="M13.7995 8.99352H11.7966C11.7966 7.61945 11.5788 6.4832 11.143 5.58477C10.7214 4.67312 10.0046 4.03233 8.99262 3.66239V8.99352H7.83308V3.44439C7.58008 3.39154 7.29196 3.36511 6.96869 3.36511C6.65948 3.36511 6.3854 3.38493 6.14647 3.42457V8.99352H4.98692V3.68221C3.9609 4.05215 3.23707 4.68634 2.81542 5.58477C2.39376 6.4832 2.18294 7.61945 2.18294 8.99352C2.18294 10.0109 2.38674 10.9357 2.79433 11.7681C3.21598 12.5872 3.82035 13.2412 4.60744 13.7301C5.39452 14.2057 6.32918 14.4436 7.41142 14.4436H12.1972V15.9894H1.27638V14.503H3.57439V14.4237C2.84353 14.1066 2.2251 13.6442 1.71912 13.0365C1.21314 12.4287 0.83365 11.7483 0.580659 10.9952C0.327668 10.2289 0.201172 9.46255 0.201172 8.69624C0.201172 7.77139 0.390915 6.85974 0.770402 5.96131C1.16394 5.06288 1.71912 4.28336 2.43593 3.62275C3.16679 2.96214 4.01712 2.49311 4.98692 2.21565V0.194183H6.14647V1.99765C6.48379 1.97123 6.75786 1.95801 6.96869 1.95801C7.17951 1.95801 7.46764 1.97123 7.83308 1.99765V0.194183H8.99262V2.21565C9.97647 2.49311 10.8268 2.96214 11.5436 3.62275C12.2745 4.27015 12.8297 5.05628 13.2091 5.98113C13.6027 6.90599 13.7995 7.91012 13.7995 8.99352Z" fill="#4F3534"/></svg>
