<svg width="57" height="57" fill="none" xmlns="http://www.w3.org/2000/svg"><rect x="4.5" y="4.75317" width="48" height="48" rx="24" fill="#F4EBFF"/><rect x="4.5" y="4.75317" width="48" height="48" rx="24" stroke="#F9F5FF" stroke-width="8"/><path d="M32.0455 26.6786c.374-.6644.6858-1.2639.8781-1.7202.9337-2.2158.0104-4.7645-2.2467-5.8041-2.257-1.0396-4.5235.0384-5.5182 2.1198-1.9021-1.3052-4.4395-1.1135-5.8388.9233-1.3993 2.0369-.9601 4.6978.9564 6.1498.8698.659 2.5901 1.6302 4.2097 2.4944m8.3112-2.3385c-.4221-2.2679-2.3518-3.9266-4.7816-3.4758-2.4297.4508-4.0007 2.643-3.6723 5.0249.2639 1.9137 1.7206 6.4037 2.2831 8.095.0768.2308.1151.3461.1911.4266.0662.0701.1542.1209.248.1432.1077.0256.2268.0011.4651-.0478 1.7459-.3585 6.3627-1.342 8.152-2.0703 2.227-.9065 3.3763-3.3616 2.5155-5.6927-.8609-2.3312-3.2258-3.1715-5.4009-2.4031Z" stroke="#875BF7" stroke-width="2" stroke-linecap="round" stroke-linejoin="round"/></svg>
