<svg width="147" height="136" fill="none" xmlns="http://www.w3.org/2000/svg"><path d="M30.1642 135.523h86.6698c2.382.005 4.679-.895 6.429-2.52 7.301-6.801 13.142-15.032 17.163-24.188 4.022-9.1559 6.139-19.0427 6.221-29.0522.374-40.7003-32.512-74.18921-72.9704-74.28527C33.1956 5.38143.349657 38.3662.349657 79.0688.338098 89.1993 2.41155 99.2225 6.43947 108.507c4.02793 9.285 9.92303 17.63 17.31423 24.511 1.7465 1.618 4.0361 2.513 6.4105 2.505Z" fill="#ECE9FE"/><path d="m121.383 30.8547 1.106 88.9713c0 3.039-2.487 5.388-5.526 5.388H30.2019c-3.0393 0-5.5261-2.487-5.5261-5.388V5.4343c0-3.03938 2.4868-5.3880315 5.5261-5.3880315H93.062L121.383 30.8547Z" fill="#A48AFB"/><path d="M80.9057 18.697H39.3214c-.9671 0-1.796-.8289-1.796-1.7959 0-.9671.8289-1.796 1.796-1.796h41.5843c.9671 0 1.796.8289 1.796 1.796 0 .967-.8289 1.7959-1.796 1.7959ZM55.3473 28.6441H39.3214c-.9671 0-1.796-.8289-1.796-1.7959 0-.9671.8289-1.796 1.796-1.796h15.8877c.967 0 1.796.8289 1.796 1.796 0 .967-.8289 1.7959-1.6578 1.7959ZM93.0605.0462685V24.6377c0 3.4539 3.0394 6.217 6.4933 6.217h21.8282" fill="#875BF7"/><path d="M127.236 133.427c-1.304.03-2.62-.462-3.691-1.611l-23.281-22.272-.7707.54c-6.9208 5.379-15.0726 8.308-23.4183 8.501-10.0409.233-20.1754-3.577-27.7715-10.446-7.9963-7.252-12.5322-17.1928-12.7861-28.1465-.5048-21.777 16.8187-39.9226 38.5956-40.4274 14.8657-.3445 28.087 7.1773 35.437 20.315 7.217 13.0103 6.66 28.4188-1.528 41.0029l-.504.795 23.415 22.399c2.268 2.166 1.798 4.395 1.434 5.578-.995 2.11-3.045 3.723-5.131 3.772ZM74.3639 50.3885c-15.9089.3687-28.389 13.5746-28.0233 29.3531.4171 17.9953 15.4033 28.4774 29.7474 28.1444 8.7369-.202 16.6006-4.299 22.0446-11.4704 6.7114-8.7666 7.6164-20.3994 2.5584-30.3285-5.1875-9.926-15.243-15.9555-26.3271-15.6986Z" fill="#6172F3"/><path d="M62.7934 85.0933c1.7628 0 3.2543-1.4916 3.2543-3.2543 0-1.7628-1.4915-3.2543-3.2543-3.2543-1.7627 0-3.2543 1.4915-3.2543 3.2543 0 1.7627 1.4916 3.2543 3.2543 3.2543ZM87.7406 85.0933c1.7628 0 3.2544-1.4916 3.2544-3.2543 0-1.7628-1.4916-3.2543-3.2544-3.2543-1.7627 0-3.2543 1.4915-3.2543 3.2543 0 1.8983 1.4916 3.2543 3.2543 3.2543ZM62.6634 71.0725l-7.1595 3.8646.9668 1.7899 7.1581-3.8659-.9654-1.7886ZM87.2994 71.021l-.9654 1.7899 7.1595 3.8645.9655-1.7899-7.1596-3.8645ZM75.2675 92.6868c2.0977 0 3.7967-1.2746 3.7967-2.8475 0-1.573-1.699-2.8476-3.7967-2.8476-2.0963 0-3.7968 1.2746-3.7968 2.8476 0 1.5729 1.7005 2.8475 3.7968 2.8475Z" fill="#875BF7"/></svg>
