<svg fill="none" xmlns="http://www.w3.org/2000/svg" width="18" height="18"><path d="M14.583 6.25c0-.47-.179-.938-.537-1.296a1.828 1.828 0 0 0-1.296-.537m0 7.333A5.5 5.5 0 1 0 6.3 6.99c.053.398.08.597.062.723a.782.782 0 0 1-.108.317c-.062.111-.171.22-.39.44L1.18 13.153c-.159.158-.238.238-.295.33a.916.916 0 0 0-.11.265c-.025.105-.025.218-.025.442v1.592c0 .514 0 .77.1.967a.917.917 0 0 0 .4.4c.197.1.453.1.967.1h2.2v-1.833H6.25v-1.834h1.833l1.448-1.447c.219-.219.328-.328.439-.39a.783.783 0 0 1 .317-.108c.126-.018.325.01.723.063.242.032.49.049.74.049Z" stroke="#4F3534" stroke-width="1.5" stroke-linecap="round" stroke-linejoin="round"/></svg>
