<svg width="24" height="21" viewBox="0 0 24 21" fill="none" xmlns="http://www.w3.org/2000/svg">
<path d="M3.37517 11.9144C3.67981 11.9148 3.98189 11.8588 4.26616 11.7493C4.97837 11.4757 5.51719 10.9021 5.78539 10.1396L5.78541 10.1396C6.04021 9.41449 6.0186 8.59824 5.72721 7.84107L5.72719 7.84102C5.43558 7.08437 4.90438 6.4644 4.22916 6.09716L4.22913 6.09715C3.51917 5.7113 2.73488 5.64672 2.02369 5.92082C0.589978 6.47212 -0.0500109 8.2321 0.563422 9.829L0.563467 9.82912C1.05429 11.1021 2.20262 11.9143 3.37517 11.9144ZM3.37517 11.9144L3.37529 11.8144V11.9144C3.37525 11.9144 3.37521 11.9144 3.37517 11.9144ZM14.9923 8.81585L14.9923 8.81584C13.4347 8.29792 12.6649 6.44726 13.2429 4.70817C13.5172 3.88203 14.0553 3.19093 14.7603 2.76391L14.7603 2.7639C15.4987 2.31673 16.3319 2.20871 17.1038 2.46511L17.1038 2.46512C17.8757 2.72183 18.478 3.30696 18.8018 4.10705C19.111 4.87103 19.1284 5.74691 18.8536 6.57305C18.8536 6.57305 18.8536 6.57306 18.8536 6.57306L18.7587 6.5415C18.2937 7.94021 17.0751 8.85028 15.8247 8.85028L14.9923 8.81585ZM14.9923 8.81585C15.2607 8.90506 15.5419 8.95044 15.8248 8.95028L14.9923 8.81585ZM14.6103 5.16253L14.6103 5.16255C14.2723 6.17949 14.6726 7.19083 15.4469 7.44842C16.2219 7.70587 17.1483 7.13536 17.4863 6.11845L17.4863 6.11842C17.6545 5.6129 17.6455 5.09066 17.4662 4.64752M14.6103 5.16253L17.5589 4.61001M14.6103 5.16253C14.7782 4.657 15.0979 4.24414 15.5069 3.99637L15.5069 3.99637C15.8846 3.76753 16.2897 3.71294 16.6494 3.83242M14.6103 5.16253L16.6809 3.73752M17.4662 4.64752L17.5589 4.61001M17.4662 4.64752C17.4662 4.64752 17.4662 4.64753 17.4662 4.64753L17.5589 4.61001M17.4662 4.64752C17.3005 4.23813 17.0089 3.9521 16.6494 3.83242M17.5589 4.61001C17.3838 4.17744 17.0721 3.86772 16.6809 3.73752M16.6494 3.83242L16.6809 3.73752M16.6494 3.83242C16.6494 3.83241 16.6494 3.83241 16.6493 3.8324L16.6809 3.73752M4.77207 19.1571L4.7721 19.1572C5.24488 19.7101 5.87002 20.0881 6.57915 20.2502L6.57918 20.2502C7.28827 20.4121 8.01567 20.343 8.6817 20.0502L8.68205 20.0501L8.72322 20.0318C8.72337 20.0317 8.72351 20.0317 8.72366 20.0316C10.3246 19.3417 12.1546 19.3479 13.7516 20.0502L13.7918 19.9587L13.7516 20.0502C14.1826 20.2397 14.6396 20.3357 15.101 20.3357C15.3518 20.3357 15.604 20.3072 15.8536 20.2503L15.8536 20.2503C16.5628 20.0884 17.1879 19.7104 17.6608 19.1575L17.6609 19.1575C18.1335 18.6046 18.41 17.9284 18.4599 17.2028C18.5098 16.477 18.3286 15.7694 17.9362 15.157L17.9362 15.157L15.6408 11.5764C14.6698 10.0616 13.0158 9.15693 11.2167 9.15693C9.41781 9.15693 7.76358 10.0616 6.79278 11.5764C6.79278 11.5764 6.79277 11.5764 6.79277 11.5764L4.49804 15.1562C4.0626 15.8015 3.98578 16.6203 4.12996 17.369C4.19611 17.7125 4.28214 18.0707 4.3876 18.3857C4.49214 18.6979 4.6192 18.9782 4.77207 19.1571ZM8.10262 18.7306L8.10245 18.7307L8.07613 18.7423C8.07588 18.7424 8.07562 18.7426 8.07537 18.7427C7.29991 19.0702 6.41618 18.8626 5.86728 18.2209C5.31277 17.5717 5.24973 16.6536 5.71043 15.9347C5.71043 15.9347 5.71043 15.9347 5.71043 15.9347L8.00597 12.3539L8.00598 12.3539C8.71082 11.2542 9.91073 10.598 11.2167 10.598C12.5227 10.598 13.7228 11.2543 14.4278 12.3539C14.4278 12.3539 14.4278 12.3539 14.4278 12.3539L16.723 15.9345C17.1839 16.6538 17.1207 17.5721 16.5658 18.2209C16.0106 18.87 15.1133 19.075 14.3316 18.7313C13.3416 18.2958 12.279 18.0782 11.2162 18.0782C10.1544 18.0782 9.092 18.2956 8.10262 18.7306ZM2.9206 7.19575H2.92086C3.12311 7.19575 3.33467 7.25097 3.54088 7.36319L3.54093 7.36322C3.91231 7.56504 4.21249 7.91753 4.38254 8.35886C4.55242 8.80052 4.56614 9.26302 4.42592 9.66159L4.52026 9.69478L4.42592 9.6616C4.29772 10.0261 4.05546 10.2866 3.7492 10.4043L3.74911 10.4043C3.0866 10.6597 2.24975 10.197 1.90816 9.31141C1.56767 8.42505 1.87786 7.52062 2.54127 7.26552C2.66233 7.21907 2.79094 7.19541 2.9206 7.19575ZM22.6317 8.22712L22.6316 8.22705C21.3957 7.31408 19.5662 7.71796 18.5491 9.09186L18.549 9.09192C17.5329 10.4664 17.6807 12.3332 18.9149 13.247C19.364 13.5797 19.8941 13.7381 20.4345 13.7381C21.3755 13.7381 22.3487 13.2584 22.9975 12.3826L22.9976 12.3825C24.0137 11.008 23.8661 9.14121 22.6317 8.22712ZM19.7723 12.089L19.7723 12.0889C19.2014 11.6663 19.1433 10.7118 19.7075 9.94872C20.0794 9.44629 20.6181 9.17335 21.1046 9.17335C21.3496 9.17335 21.5812 9.24239 21.7747 9.38541C22.3453 9.8086 22.4031 10.7628 21.8395 11.5254C21.2737 12.2889 20.3438 12.5122 19.7723 12.089ZM8.65362 7.95057C10.4353 7.95057 11.8632 6.30387 11.8632 4.30785C11.8632 2.31135 10.4353 0.664343 8.65362 0.664343C6.87208 0.664343 5.44442 2.31136 5.44442 4.30785C5.44442 6.30386 6.87206 7.95057 8.65362 7.95057ZM8.65362 2.10523C9.61016 2.10523 10.4223 3.07294 10.4223 4.30785C10.4223 5.54223 9.61019 6.50968 8.65362 6.50968C7.69707 6.50968 6.8853 5.54226 6.8853 4.30785C6.8853 3.07291 7.69714 2.10523 8.65362 2.10523Z" fill="#4F3534" stroke="#4F3534" stroke-width="0.2"/>
</svg>
