<svg width="20" height="20" fill="none" xmlns="http://www.w3.org/2000/svg"><path d="M6.68192 7.11546c.638 1.32882 1.50772 2.57424 2.60917 3.67564 1.10141 1.1015 2.34691 1.9712 3.67571 2.6092.1143.0549.1714.0823.2437.1034.257.0749.5726.0211.7902-.1347.0613-.0439.1137-.0963.2185-.2011.3204-.3204.4807-.4807.6418-.5854.6077-.3951 1.391-.3951 1.9987 0 .1611.1047.3213.265.6418.5854l.1786.1787c.4872.4871.7308.7307.8631.9923.2631.5203.2631 1.1347 0 1.6549-.1323.2616-.3759.5052-.8631.9924l-.1445.1445c-.4854.4855-.7282.7282-1.0582.9136-.3662.2057-.935.3536-1.3551.3524-.3785-.0011-.6372-.0746-1.1546-.2214-2.7806-.7893-5.40445-2.2784-7.59343-4.4673-2.18898-2.189-3.67808-4.81285-4.4673-7.59346-.14686-.51741-.22029-.77612-.22142-1.15465-.00125-.42004.14667-.98882.35239-1.35504.18539-.33002.42814-.57277.91362-1.05826l.1445-.14449c.48716-.48716.73074-.73074.99233-.86305.52027-.26315 1.13468-.26315 1.65494 0 .2616.13231.50518.37589.99234.86304l.17863.17864c.32047.32047.4807.4807.58547.64183.39507.60765.39508 1.39102 0 1.99867-.10477.16113-.265.32136-.58547.64184-.10479.10478-.15718.15718-.20104.21842-.15584.21764-.20965.53321-.13474.79021.02108.07231.04852.12946.1034.24376Z" stroke="#4F3534" stroke-width="1.5" stroke-linecap="round" stroke-linejoin="round"/></svg>
