<svg width="24" height="24" viewBox="0 0 24 24" fill="none" xmlns="http://www.w3.org/2000/svg">
<path d="M7.10456 3C6.76773 3 6.43316 3.05136 6.11069 3.15205L5.86419 3.22902C4.42827 3.67739 3.38837 4.95989 3.11805 6.494C2.96065 7.38721 2.96065 8.3051 3.11805 9.19831C3.12424 9.23344 3.13083 9.26843 3.13782 9.30329C4.26404 15.1571 8.84285 19.7359 14.6966 20.8622C14.7315 20.8692 14.7665 20.8758 14.8017 20.882C15.6949 21.0394 16.6128 21.0393 17.506 20.882C19.0401 20.6116 20.3226 19.5717 20.771 18.1358L20.8479 17.8893C20.9486 17.5668 21 17.2323 21 16.8954C21 15.2764 19.5743 14.0769 17.9621 14.0769H14.3456C12.7333 14.0769 11.3077 15.2764 11.3077 16.8954C11.3077 17.2323 11.359 17.5668 11.4597 17.8893L11.5367 18.1358C11.563 18.22 11.5921 18.3028 11.624 18.3842C9.01591 17.0999 6.9001 14.9841 5.61584 12.376C5.69721 12.4079 5.78002 12.437 5.86418 12.4633L6.11069 12.5403C6.43316 12.641 6.76772 12.6923 7.10456 12.6923C8.72358 12.6923 9.92308 11.2667 9.92308 9.65441L9.92308 6.03791C9.92309 4.42565 8.72359 3 7.10456 3Z" fill="#FA4812"/>
</svg>
