<svg width="24" height="24" fill="none" xmlns="http://www.w3.org/2000/svg"><path d="m4.27209 20.7279 6.59651-6.5965c.396-.396.5941-.5941.8224-.6682.2008-.0653.4172-.0653.618 0 .2283.0741.4264.2722.8224.6682l6.5525 6.5525M14 15l2.8686-2.8686c.396-.396.5941-.5941.8224-.6682.2008-.0653.4172-.0653.618 0 .2283.0741.4264.2722.8224.6682L22 15M10 9c0 1.1046-.89543 2-2 2s-2-.8954-2-2c0-1.10457.89543-2 2-2s2 .89543 2 2ZM6.8 21h10.4c1.6802 0 2.5202 0 3.162-.327.5645-.2876 1.0234-.7465 1.311-1.311C22 18.7202 22 17.8802 22 16.2V7.8c0-1.68016 0-2.52024-.327-3.16197-.2876-.56449-.7465-1.02343-1.311-1.31105C19.7202 3 18.8802 3 17.2 3H6.8c-1.68016 0-2.52024 0-3.16197.32698-.56449.28762-1.02343.74656-1.31105 1.31105C2 5.27976 2 6.11984 2 7.8v8.4c0 1.6802 0 2.5202.32698 3.162.28762.5645.74656 1.0234 1.31105 1.311C4.27976 21 5.11984 21 6.8 21Z" stroke="#4F3534" stroke-width="2" stroke-linecap="round" stroke-linejoin="round"/></svg>
