<svg width="150" height="150" fill="none" xmlns="http://www.w3.org/2000/svg"><path fill-rule="evenodd" clip-rule="evenodd" d="M49.4026 131.219H31.664c-2.3743.008-4.6639-.886-6.4104-2.505-7.3912-6.88-13.2863-15.225-17.31425-24.51-4.02792-9.2847-6.10137-19.3079-6.08981-29.4385 0-40.7025 32.84596-73.68731 73.32696-73.5912 40.4585.09605 73.3445 33.585 72.9705 74.2853-.082 10.0095-2.199 19.8962-6.221 29.0524-4.021 9.155-9.862 17.387-17.163 24.187-1.751 1.626-4.047 2.526-6.429 2.52h-17.752c.985-7.763-1.7013-15.725-7.3583-21.383-3.6873-3.433-8.0331-5.925-13.0375-6.98-13.9607-3.039-27.5258 6.052-30.4235 20.013-.586 2.823-.6872 5.636-.3601 8.35Z" fill="#ECE9FE"/><path fill-rule="evenodd" clip-rule="evenodd" d="M94.0611 74.4192c2.0689 2.6631 4.732 4.8054 7.7769 6.2557l16.74 7.9746c3.004 1.4312 5.425 3.8513 6.858 6.855 1.432 3.0037 1.789 6.4085 1.01 9.6435-1.078 4.462-3.379 8.535-6.645 11.76-3.265 3.226-7.366 5.477-11.841 6.499-2.465.566-4.923 1.072-7.371 1.518-.6928-5.608-3.2387-10.961-7.3653-15.089-3.6873-3.433-8.0331-5.925-13.0375-6.98-13.9606-3.039-27.5258 6.052-30.4235 20.013-.1697.817-.2987 1.634-.3884 2.447-2.7144-.479-5.4167-1.039-8.1069-1.682-4.4003-1.064-8.4207-3.325-11.6167-6.531-3.196-3.207-5.4434-7.235-6.4936-11.638l-.0762-.317c-.779-3.235-.4225-6.6398 1.0098-9.6435 1.4324-3.0037 3.8535-5.4238 6.8578-6.8549l16.7405-7.9747c3.0445-1.4503 5.7076-3.5926 7.7765-6.2557 2.0688-2.6631 3.4861-5.7732 4.1386-9.0818l1.9514-9.8957 13.2078 4.2434 13.2078-4.2434 1.9514 9.8957c.6525 3.3086 2.0698 6.4187 4.1386 9.0818Z" fill="#875BF7"/><path d="M88.0081 68.3281h-.0001c-3.7406 3.0493-8.4189 4.7144-13.2449 4.7144-4.8261 0-9.5043-1.6651-13.245-4.7144h-.0001c-2.4928-2.0321-4.5502-4.546-6.0491-7.3914-1.4989-2.8455-2.4085-5.964-2.6745-9.1691l-1.3451-16.2103c-.2676-3.2241.1365-6.4686 1.1867-9.5286 1.0502-3.06 2.7237-5.8689 4.9147-8.2492 2.1909-2.3803 4.8518-4.2803 7.8145-5.58 2.9626-1.2996 6.1627-1.9706 9.3978-1.9706h.0001c3.2352 0 6.4352.671 9.3978 1.9706 2.9627 1.2997 5.6236 3.1997 7.8146 5.58 2.191 2.3803 3.8644 5.1892 4.9146 8.2492 1.0502 3.06 1.4543 6.3045 1.1868 9.5286l-1.3452 16.2103c-.266 3.2051-1.1756 6.3236-2.6745 9.1691-1.4989 2.8454-3.5563 5.3593-6.0491 7.3914Z" fill="#A48AFB"/><path fill-rule="evenodd" clip-rule="evenodd" d="m30.948 88.6495 16.7405-7.9746c1.1806-.5633 2.3075-1.2326 3.367-1.9997l8.592 7.1712c4.2414 3.54 9.5907 5.4791 15.1153 5.4791 5.5246 0 10.874-1.9391 15.1154-5.4791l8.592-7.1712c1.0594.7671 2.1868 1.4364 3.3668 1.9997l16.741 7.9746c3.004 1.4312 5.425 3.8513 6.857 6.855 1.433 3.0037 1.789 6.4085 1.01 9.6435-1.077 4.462-3.378 8.535-6.644 11.76-3.266 3.226-7.366 5.477-11.841 6.499-2.466.566-4.923 1.072-7.371 1.518-.6928-5.608-3.2387-10.961-7.3653-15.089-3.6873-3.433-8.0331-5.925-13.0375-6.98-13.9606-3.039-27.5258 6.052-30.4235 20.013-.1697.817-.2987 1.634-.3885 2.447-2.7316-.482-5.451-1.046-8.1581-1.694-4.3889-1.066-8.3978-3.324-11.584-6.525-3.1861-3.201-5.4256-7.22-6.471-11.614l-.0811-.336c-.7786-3.235-.4218-6.6398 1.0106-9.6432s3.8534-5.4233 6.8574-6.8543Z" fill="#875BF7"/><path fill-rule="evenodd" clip-rule="evenodd" d="M93.6265 137.471c.7476-1.609 1.3891-3.527 1.8161-5.342 1.4953-6.837-.6405-14.097-5.6617-19.12-2.9906-2.784-6.5155-4.805-10.5745-5.661-11.3232-2.465-22.3257 4.908-24.6759 16.232-2.3503 11.323 4.9139 22.43 16.2371 24.781 4.8067 1.072 9.6134.216 13.6725-1.815 3.9528-2.032 7.1569-5.126 9.1864-9.075Zm-23.1268-1.807c.3558.371.7934.543 1.2584.543.465 0 .93-.172 1.2584-.543l12.5297-13.019c.6843-.71.6843-1.908 0-2.618-.6838-.715-1.8325-.715-2.5168 0l-11.2713 11.708-4.7874-4.989c-.6843-.709-1.833-.709-2.5173 0-.6838.715-.6838 1.909 0 2.624l6.0463 6.294Z" fill="#6172F3"/></svg>
