<svg width="57" height="57" fill="none" xmlns="http://www.w3.org/2000/svg"><rect x="4.5" y="4.75317" width="48" height="48" rx="24" fill="#E4FBCC"/><rect x="4.5" y="4.75317" width="48" height="48" rx="24" stroke="#F3FEE7" stroke-width="8"/><path d="m20.5 30.7532 1.5746 6.2986c.0443.1771.0665.2657.0927.343.2559.7555.9362 1.2867 1.7312 1.3517.0814.0067.1727.0067.3553.0067.2286 0 .343 0 .4393-.0093.9519-.0924 1.7052-.8457 1.7976-1.7976.0093-.0963.0093-.2107.0093-.4393V22.2532m8.5 8c1.933 0 3.5-1.567 3.5-3.5s-1.567-3.5-3.5-3.5m-8.25-1H23c-2.4853 0-4.5 2.0147-4.5 4.5s2.0147 4.5 4.5 4.5h3.75c1.7664 0 3.9272.9469 5.5943 1.8557.9725.5301 1.4588.7952 1.7773.7562.2953-.0362.5186-.1688.6917-.4108C35 33.1934 35 32.6712 35 31.6269v-9.7474c0-1.0443 0-1.5664-.1867-1.8274-.1731-.242-.3964-.3746-.6917-.4108-.3185-.039-.8048.2261-1.7773.7563-1.6671.9087-3.8279 1.8556-5.5943 1.8556Z" stroke="#4CA30D" stroke-width="2" stroke-linecap="round" stroke-linejoin="round"/></svg>
