<svg width="16" height="18" fill="none" xmlns="http://www.w3.org/2000/svg"><path d="M14.1888 16.7015c0-1.1629 0-1.7444-.1435-2.2176-.3232-1.0653-1.1568-1.899-2.2222-2.2222-.4731-.1435-1.0546-.1435-2.2176-.1435H5.43884c-1.16298 0-1.74446 0-2.21763.1435-1.06533.3232-1.89901 1.1569-2.222178 2.2222-.143533.4732-.143533 1.0547-.143533 2.2176M11.2722 5.45154c0 2.07107-1.67897 3.75-3.75003 3.75-2.07107 0-3.75-1.67893-3.75-3.75 0-2.07107 1.67893-3.75 3.75-3.75 2.07106 0 3.75003 1.67893 3.75003 3.75Z" stroke="#4F3534" stroke-width="1.66667" stroke-linecap="round" stroke-linejoin="round"/></svg>
