<svg width="57" height="56" fill="none" xmlns="http://www.w3.org/2000/svg"><rect x="4.64844" y="4" width="48" height="48" rx="24" fill="#E0EAFF"/><rect x="4.64844" y="4" width="48" height="48" rx="24" stroke="#EEF4FF" stroke-width="8"/><path d="M27.0711 34.0775h2.5117v-6.0783h1.6752l.2222-2.0942h-1.8974l.0023-1.049c0-.5462.0523-.8387.8357-.8387h1.0475v-2.095h-1.676c-2.0126 0-2.7212 1.0161-2.7212 2.725v1.2577h-1.2547v2.0949h1.2547v6.0776Z" fill="#6172F3"/><path d="M28.6482 18.2929c5.3523 0 9.7071 4.3548 9.7071 9.7071 0 5.3523-4.3548 9.7071-9.7071 9.7071-5.3522 0-9.7071-4.3548-9.7071-9.7071 0-5.3523 4.3549-9.7071 9.7071-9.7071Zm0-1.1638c-6.0041 0-10.8709 4.8668-10.8709 10.8709 0 6.0041 4.8668 10.8709 10.8709 10.8709 6.0041 0 10.8709-4.8668 10.8709-10.8709 0-6.0041-4.8668-10.8709-10.8709-10.8709Z" fill="#6172F3" stroke="#6172F3" stroke-width=".5"/></svg>
