<svg width="18" height="18" fill="none" xmlns="http://www.w3.org/2000/svg"><path d="M9.00001 11.75c-2.90591 0-5.49011 1.4031-7.13534 3.5805-.3541.4686-.53115.7029-.52536 1.0196.00447.2447.15811.5533.35061.7044.24917.1955.59447.1955 1.28505.1955H15.025c.6906 0 1.0359 0 1.2851-.1955.1925-.1511.3461-.4597.3506-.7044.0058-.3167-.1713-.551-.5254-1.0196-1.6452-2.1774-4.2294-3.5805-7.13529-3.5805ZM9.00001 9C11.2782 9 13.125 7.15317 13.125 4.875c0-2.27817-1.8468-4.125-4.12499-4.125-2.27818 0-4.125 1.84683-4.125 4.125 0 2.27817 1.84682 4.125 4.125 4.125Z" stroke="#4F3534" stroke-width="1.5" stroke-linecap="round" stroke-linejoin="round"/></svg>
