<svg width="57" height="56" fill="none" xmlns="http://www.w3.org/2000/svg"><rect x="4.64844" y="4" width="48" height="48" rx="24" fill="#F4EBFF"/><rect x="4.64844" y="4" width="48" height="48" rx="24" stroke="#F9F5FF" stroke-width="8"/><path d="M28.6484 38c1-5 8-5.5817 8-12 0-4.4183-3.5817-8-8-8-4.4182 0-8 3.5817-8 8 0 6.4183 7 7 8 12Z" stroke="#875BF7" stroke-width="2" stroke-linecap="round" stroke-linejoin="round"/><path d="M28.6484 29c1.6569 0 3-1.3431 3-3s-1.3431-3-3-3c-1.6568 0-3 1.3431-3 3s1.3432 3 3 3Z" stroke="#875BF7" stroke-width="2" stroke-linecap="round" stroke-linejoin="round"/></svg>
