<svg version="1.2" xmlns="http://www.w3.org/2000/svg" viewBox="0 0 448 512" width="22" height="25">
	<title>mars-solid-svg</title>
	<style>
		.s0 { fill: #8098f9 } 
	</style>
	<path id="Layer" fill-rule="evenodd" class="s0" d="m289.8 46.8c3.7-9 12.5-14.8 22.2-14.8h112c13.3 0 24 10.7 24 24v112c0 9.7-5.8 18.5-14.8 22.2-9 3.7-19.3 1.7-26.2-5.2l-33.4-33.4-52.6 52.6c19.5 28.4 31 62.7 31 99.8 0 97.2-78.8 176-176 176-97.2 0-176-78.8-176-176 0-97.2 78.8-176 176-176 37 0 71.4 11.4 99.8 31l52.6-52.6-33.4-33.4c-6.9-6.9-8.9-17.2-5.2-26.2zm-113.8 369.2c29.7 0 58.2-11.8 79.2-32.8 21-21 32.8-49.5 32.8-79.2 0-29.7-11.8-58.2-32.8-79.2-21-21-49.5-32.8-79.2-32.8-29.7 0-58.2 11.8-79.2 32.8-21 21-32.8 49.5-32.8 79.2 0 29.7 11.8 58.2 32.8 79.2 21 21 49.5 32.8 79.2 32.8zm224-336z"/>
</svg>