<svg width="173" height="150" viewBox="0 0 173 150" fill="none" xmlns="http://www.w3.org/2000/svg">
<path fill-rule="evenodd" clip-rule="evenodd" d="M63.69 136.551H45.0987C42.8551 136.558 40.6915 135.713 39.0412 134.184C32.057 127.682 26.4865 119.797 22.6803 111.023C18.8742 102.249 16.9149 92.7781 16.9258 83.2054C16.9258 44.7439 47.9633 13.5754 86.2153 13.6662C124.446 13.757 155.522 45.4019 155.168 83.8612C155.09 93.3196 153.09 102.662 149.29 111.314C145.49 119.965 139.97 127.743 133.071 134.169C131.417 135.706 129.247 136.556 126.996 136.551H109.37C109.903 135.141 110.36 133.636 110.701 132.187C112.468 124.106 109.944 115.525 104.009 109.589C100.474 106.299 96.3083 103.91 91.5108 102.898C78.1277 99.9848 65.1237 108.7 62.3459 122.083C61.3001 127.121 61.8649 132.123 63.69 136.551Z" fill="#ECE9FE"/>
<path fill-rule="evenodd" clip-rule="evenodd" d="M104.631 136.478C105.358 134.914 105.981 133.051 106.396 131.287C107.849 124.644 105.774 117.59 100.895 112.71C97.9889 110.004 94.5641 108.04 90.6202 107.209C79.618 104.814 68.9275 111.978 66.6439 122.98C64.3603 133.983 71.4185 144.774 82.4207 147.059C87.0911 148.101 91.7615 147.269 95.7054 145.295C99.5461 143.321 102.659 140.315 104.631 136.478ZM82.1602 134.723C82.506 135.083 82.9311 135.25 83.3829 135.25C83.8347 135.25 84.2865 135.083 84.6057 134.723L96.7801 122.072C97.445 121.383 97.445 120.218 96.7801 119.529C96.1157 118.834 94.9995 118.834 94.3346 119.529L83.3829 130.904L78.7313 126.057C78.0664 125.368 76.9502 125.368 76.2853 126.057C75.621 126.752 75.621 127.912 76.2853 128.606L82.1602 134.723Z" fill="#6172F3"/>
<g filter="url(#filter0_d_1167_5327)">
<rect x="10.8203" y="34.2139" width="60.4077" height="80.2026" rx="10" transform="rotate(-18.2108 10.8203 34.2139)" fill="#8098F9"/>
<path d="M62.8834 80.6195L53.934 83.5638C52.9374 83.8917 51.9039 83.4575 51.6188 82.5908C51.3315 81.7174 51.9052 80.7542 52.9018 80.4264L61.8512 77.4821C62.8469 77.1545 63.8813 77.5886 64.1686 78.462C64.4538 79.3287 63.8791 80.292 62.8834 80.6195Z" fill="#6172F3"/>
<path d="M70.3197 84.1037L49.958 90.8026C49.3365 91.0071 48.6768 90.6771 48.4723 90.0556C48.2678 89.434 48.6027 88.7768 49.2243 88.5723L69.586 81.8735C70.2076 81.669 70.8672 81.999 71.0717 82.6205C71.2702 83.2238 70.9413 83.8993 70.3197 84.1037Z" fill="#6172F3"/>
<path fill-rule="evenodd" clip-rule="evenodd" d="M65.1203 47.4695C68.1494 56.6768 63.141 66.5964 53.9337 69.6255C44.7264 72.6547 34.8068 67.6463 31.7777 58.439C28.7486 49.2317 33.757 39.3121 42.9642 36.283C52.1715 33.2538 62.0911 38.2622 65.1203 47.4695ZM55.7152 44.6843C54.6044 43.7998 53.2403 43.0752 52.3812 42.7494C50.5057 42.0378 49.346 42.5122 48.8216 42.8583C48.6013 43.0038 48.414 43.1769 48.2645 43.3697C46.9828 43.0067 45.6281 43.1044 44.1559 43.6626C42.6838 44.2208 41.6048 45.0458 40.886 46.1673C40.6462 46.1221 40.3912 46.1167 40.1299 46.1539C39.5079 46.2424 38.3252 46.6561 37.3929 48.4322C36.9658 49.2457 36.425 50.6926 36.1797 52.0912C35.8477 53.9847 36.1172 55.3123 36.9809 56.0375C38.0353 56.9228 39.0976 56.8489 39.8941 56.628C39.9834 57.4343 40.1646 58.2645 40.5359 59.2437C41.028 60.5416 41.7468 61.5462 42.6724 62.2296C43.4861 62.8304 44.465 63.1875 45.5818 63.2908C47.6453 63.4817 49.7775 62.7859 51.2018 62.2458C52.6261 61.7058 54.6838 60.8131 56.1019 59.3021C56.8695 58.4843 57.3656 57.568 57.5764 56.5787C57.8162 55.4534 57.6883 54.2248 57.1962 52.9269C56.825 51.9477 56.4102 51.2061 55.9425 50.5432C56.6852 50.1805 57.5295 49.5314 57.7319 48.1696C57.8976 47.0543 57.2191 45.8817 55.7152 44.6843ZM39.8117 55.1902C39.1238 55.4306 38.52 55.5087 37.8777 54.9694C37.4419 54.6035 37.3237 53.6422 37.5535 52.3319C37.7715 51.0884 38.2632 49.7747 38.6277 49.0803C39.2297 47.9334 39.8925 47.6315 40.2284 47.5531C39.7167 49.0737 39.7051 50.8023 39.7731 52.4528C39.8012 53.1363 39.803 53.7283 39.8047 54.3009L39.8047 54.304C39.8057 54.6092 39.8066 54.9028 39.8117 55.1902ZM48.2016 56.8992C47.7364 56.6899 47.4257 56.4029 47.3592 56.2276C47.2999 56.071 47.3224 56.0496 47.4061 55.9699L47.4062 55.9698C47.6452 55.7423 48.1984 55.5168 48.5936 55.3669C48.9889 55.2171 49.5526 55.0192 49.8822 55.031C49.9979 55.0351 50.029 55.0363 50.0884 55.1928C50.1548 55.3681 50.1125 55.7889 49.903 56.2541C49.6969 56.7114 49.4106 57.0245 49.2458 57.087C49.0809 57.1496 48.659 57.1049 48.2016 56.8992ZM55.0851 58.3477C54.2698 59.2163 53.0456 59.9839 51.3556 60.6847L50.3429 58.0137C50.78 57.622 51.0555 57.0911 51.1746 56.8269C51.3419 56.4555 51.6981 55.5045 51.3924 54.6984C51.1424 54.0389 50.6238 53.6621 49.9323 53.6373C49.4713 53.6208 48.9402 53.7441 48.0993 54.0629C47.2583 54.3818 46.779 54.6416 46.4448 54.9596C45.9436 55.4366 45.8052 56.0625 46.0552 56.722C46.3609 57.5282 47.258 58.0039 47.6295 58.171C47.8938 58.2899 48.4521 58.5046 49.0389 58.5081L50.0516 61.1791C48.3218 61.7749 46.8965 62.012 45.7103 61.9022C43.8448 61.7296 42.5788 60.6983 41.8398 58.7493C41.2077 57.082 41.2041 55.9137 41.1992 54.2969L41.1992 54.2969L41.1992 54.2966C41.1976 53.7383 41.1956 53.1055 41.1664 52.3954C41.0058 48.495 41.5135 46.156 44.6503 44.9666C47.7872 43.7773 49.7181 45.1918 52.1838 48.2182C52.6315 48.7678 53.0486 49.2417 53.4168 49.66L53.4196 49.6632L53.4199 49.6635C54.4881 50.8771 55.26 51.754 55.8921 53.4213C56.6312 55.3703 56.3671 56.9818 55.0851 58.3477ZM56.3524 47.9647C56.2291 48.7944 55.7252 49.1361 55.0509 49.4122C54.8635 49.1929 54.6689 48.9718 54.4665 48.7418C54.0883 48.312 53.6971 47.8676 53.265 47.3373C52.2216 46.0566 51.0669 44.7703 49.6756 43.9712C49.9791 43.8072 50.6755 43.5937 51.8866 44.0532C52.6198 44.3313 53.8588 44.9888 54.8465 45.7752C55.8872 46.6038 56.4361 47.4018 56.3524 47.9647ZM44.0863 52.6071C43.9047 52.1283 44.1416 51.5948 44.6133 51.416C45.0857 51.2369 45.6166 51.4792 45.7982 51.9581C45.9797 52.4369 45.7431 52.9706 45.2707 53.1497C44.7989 53.3286 44.2679 53.086 44.0863 52.6071ZM48.4127 50.9668C48.2298 50.4844 48.4679 49.9468 48.9442 49.7662C49.4199 49.5858 49.9546 49.8304 50.1375 50.3128C50.3204 50.7953 50.0823 51.3328 49.6065 51.5132C49.1302 51.6938 48.5956 51.4492 48.4127 50.9668Z" fill="#F5F3FF"/>
</g>
<path d="M61.978 55.9495C66.6926 55.9495 70.5145 52.1275 70.5145 47.4129C70.5145 42.6983 66.6926 38.8763 61.978 38.8763C57.2634 38.8763 53.4414 42.6983 53.4414 47.4129C53.4414 52.1275 57.2634 55.9495 61.978 55.9495Z" fill="#D4D9E3"/>
<g filter="url(#filter1_d_1167_5327)">
<rect x="106.941" y="17.5847" width="61.3753" height="80.2026" rx="10" transform="rotate(20.0724 106.941 17.5847)" fill="#BC9D88"/>
<path d="M119.507 86.4274L110.658 83.1939C109.673 82.8339 109.131 81.8527 109.444 80.9958C109.759 80.1322 110.806 79.7316 111.792 80.0916L120.641 83.3251C121.625 83.6849 122.168 84.6665 121.853 85.5301C121.54 86.387 120.492 86.7871 119.507 86.4274Z" fill="#996E59"/>
<path d="M123.184 93.7698L103.05 86.413C102.436 86.1885 102.123 85.5208 102.347 84.9062C102.572 84.2916 103.242 83.9832 103.856 84.2078L123.99 91.5645C124.604 91.7891 124.918 92.4568 124.693 93.0714C124.475 93.6679 123.798 93.9944 123.184 93.7698Z" fill="#996E59"/>
<path fill-rule="evenodd" clip-rule="evenodd" d="M119.832 72.441C128.936 75.7676 139.013 71.0841 142.34 61.9801C145.666 52.876 140.983 42.799 131.879 39.4724C122.775 36.1458 112.698 40.8293 109.371 49.9333C106.045 59.0373 110.728 69.1144 119.832 72.441ZM115.874 54.365C115.897 54.2937 115.93 54.2176 115.975 54.1366C116.114 53.8891 116.312 53.6802 116.55 53.5292C117.24 53.0854 118.97 52.0227 119.044 51.9778L119.052 51.9724C119.422 51.7579 119.952 51.5094 120.632 51.235C121.95 50.7007 123.238 50.1133 124.322 49.6085C125.944 48.8545 127.435 48.7832 128.015 48.7885C128.36 48.3194 128.78 47.9121 129.257 47.5844C130.095 47.018 131.456 46.5149 133.189 47.3275C133.302 47.3734 133.785 47.5941 134.255 48.1583C134.687 48.6762 135.186 49.5969 135.19 51.0805C135.361 51.1727 135.521 51.2854 135.666 51.4169C135.973 51.6971 136.242 52.0185 136.464 52.3726C136.503 52.4339 136.526 52.5045 136.531 52.5777C136.535 52.6509 136.522 52.7244 136.491 52.7914C136.46 52.8584 136.413 52.9166 136.355 52.9607C136.297 53.0047 136.228 53.0332 136.157 53.0435L136.154 53.0437C136.097 53.051 135.306 53.1509 134.338 52.7791L134.326 52.7746C134.228 52.7366 134.134 52.6922 134.042 52.6419C133.749 52.7186 132.943 52.99 132.509 53.7305C132.418 53.8888 132.354 54.061 132.32 54.24C132.179 54.9271 131.781 56.6128 131.13 57.4203C131.019 57.5579 130.914 57.6981 130.803 57.8469L130.713 57.9661C130.108 58.7557 129.301 59.3625 128.383 59.7193C127.399 60.1015 126.31 60.1986 125.13 60.0111L124.788 61.6434L126.283 62.8062C126.363 62.8697 126.418 62.9607 126.438 63.0628C126.457 63.1648 126.44 63.2712 126.389 63.3624C126.338 63.4536 126.256 63.5237 126.16 63.5599C126.063 63.5961 125.957 63.596 125.862 63.5597C125.824 63.545 125.789 63.5251 125.757 63.5003L124.736 62.7069L124.729 63.9505C124.729 64.0214 124.711 64.0914 124.679 64.1545C124.646 64.2175 124.598 64.2717 124.541 64.3123C124.483 64.3529 124.416 64.3787 124.347 64.3874C124.278 64.3961 124.208 64.3875 124.143 64.3624C124.063 64.3313 123.994 64.2761 123.946 64.2042C123.898 64.1323 123.873 64.047 123.873 63.9594L123.881 62.5526L123.711 62.6452C123.727 62.6776 123.738 62.712 123.745 62.7479C123.765 62.8505 123.748 62.9575 123.696 63.0493C123.645 63.1411 123.563 63.2115 123.466 63.2476C123.368 63.2836 123.262 63.2828 123.166 63.2454C123.128 63.2307 123.093 63.2106 123.061 63.1858L122.758 62.9503C122.734 62.9371 122.71 62.9214 122.689 62.9035C122.674 62.8911 122.66 62.8777 122.646 62.8634L122.041 62.3931L122.035 63.6368C122.034 63.694 122.023 63.7507 122.001 63.8037C121.979 63.8568 121.948 63.9051 121.908 63.9459C121.868 63.9868 121.82 64.0193 121.768 64.0417C121.716 64.0641 121.661 64.076 121.604 64.0765C121.551 64.0772 121.498 64.0676 121.448 64.0482C121.368 64.0169 121.3 63.9617 121.252 63.8899C121.204 63.818 121.179 63.7328 121.18 63.6454L121.187 62.2385L120.413 62.6621C120.313 62.7151 120.197 62.7261 120.09 62.6927C119.983 62.6594 119.894 62.5844 119.842 62.484C119.79 62.3835 119.779 62.2656 119.812 62.1558C119.844 62.046 119.918 61.953 120.017 61.8969L121.241 61.227L121.755 58.7761C121.311 58.5085 120.856 58.1747 120.504 57.7812C120.112 57.9066 119.354 58.1168 118.397 58.2213C116.875 58.3879 115.438 58.2189 114.189 57.7322C113.92 57.6281 113.658 57.5078 113.404 57.3721C112.96 57.1388 112.574 56.8084 112.273 56.4043C111.624 55.5257 111.829 54.8732 112.007 54.562C112.291 54.0696 112.86 53.8085 113.421 53.912L115.874 54.365ZM123.014 62.0449L123.936 61.5408L124.294 59.835C123.986 59.7545 123.672 59.6559 123.353 59.5392L123.35 59.5382C123.329 59.5305 123.269 59.5092 123.18 59.4744C123.033 59.4171 122.807 59.3238 122.539 59.1964L122.092 61.3283L123.014 62.0449ZM119.731 57.102L119.745 57.097L119.764 57.0919C120.158 56.9819 120.426 56.8925 120.498 56.868L120.502 56.8666C120.589 56.8304 120.685 56.8248 120.774 56.8507C120.864 56.8766 120.942 56.9325 120.996 57.0094C121.731 58.0182 123.536 58.6761 123.641 58.7143L123.646 58.716L123.652 58.7182C127.484 60.1197 129.395 58.2925 130.038 57.4425L130.126 57.326L130.136 57.3121L130.136 57.3121L130.136 57.3121L130.136 57.3121L130.136 57.3121L130.136 57.3121C130.244 57.1686 130.355 57.0203 130.472 56.8751C130.904 56.3386 131.277 55.078 131.483 54.0745C131.537 53.7998 131.636 53.5356 131.776 53.293C132.173 52.6163 132.775 52.2268 133.255 52.0096L132.897 51.6764C132.838 51.622 132.796 51.5516 132.774 51.4732C132.753 51.3948 132.754 51.3116 132.777 51.233C132.8 51.1545 132.845 51.0838 132.905 51.029C132.965 50.9743 133.039 50.9376 133.119 50.9232L133.587 50.8356C133.832 50.7888 134.081 50.7799 134.326 50.8085C134.213 48.7232 132.943 48.1688 132.86 48.1366C132.852 48.1345 132.848 48.1323 132.842 48.1298L132.838 48.128L132.831 48.1251C131.732 47.6066 130.695 47.6628 129.747 48.2924C129.292 48.5997 128.899 48.9949 128.593 49.4552C128.551 49.5246 128.491 49.5811 128.419 49.6183C128.348 49.6555 128.269 49.6719 128.189 49.6657L128.186 49.6655C128.097 49.6603 126.462 49.5655 124.668 50.4004C123.572 50.9092 122.272 51.5026 120.936 52.0438C120.298 52.3024 119.805 52.5311 119.472 52.7249C119.371 52.7871 117.664 53.8354 116.998 54.2643C116.894 54.3301 116.805 54.4188 116.738 54.5238C116.879 54.5381 117.145 54.5318 117.628 54.4372C117.841 54.3946 118.097 54.3608 118.37 54.3257C118.542 54.3035 118.715 54.2803 118.888 54.257L118.888 54.257C119.948 54.1147 121.026 53.9699 122.086 54.0312L123.3 54.1013C123.366 54.1051 123.433 54.0946 123.499 54.0842L123.499 54.0842C123.543 54.0772 123.587 54.0703 123.631 54.0675C123.687 54.0639 123.743 54.0716 123.796 54.0902C123.849 54.1087 123.897 54.1377 123.939 54.1755C123.981 54.2134 124.014 54.2593 124.038 54.3107C124.062 54.362 124.076 54.4178 124.079 54.4749C124.081 54.532 124.073 54.5892 124.054 54.6434C124.035 54.6975 124.005 54.7474 123.967 54.7903C123.893 54.8742 123.775 54.8913 123.663 54.8872L120.266 54.7651C119.764 55.0149 119.145 55.0964 118.55 55.1749C118.283 55.21 118.021 55.2444 117.777 55.2931C117.171 55.4119 116.726 55.4324 116.421 55.3539L116.418 55.3527L113.255 54.7681C113.049 54.7307 112.844 54.8204 112.744 54.9928C112.618 55.2129 112.691 55.5081 112.961 55.8739C113.188 56.1768 113.479 56.4242 113.813 56.5985C115.403 57.4526 117.127 57.4832 118.294 57.3599C118.86 57.2994 119.354 57.1974 119.731 57.102ZM134.563 51.7549C134.438 51.7101 134.306 51.6813 134.172 51.6696C134.312 51.7961 134.475 51.8954 134.651 51.9626C134.808 52.0227 134.968 52.0713 135.132 52.1079L135.092 52.0715C134.952 51.9446 134.791 51.8448 134.619 51.7758C134.6 51.7702 134.581 51.7632 134.563 51.7549ZM131.008 50.8483L130.482 50.6433C130.377 50.6022 130.293 50.52 130.248 50.4146C130.203 50.3092 130.201 50.1894 130.243 50.0815C130.285 49.9736 130.368 49.8865 130.472 49.8392C130.576 49.792 130.694 49.7885 130.8 49.8296L131.325 50.0346C131.431 50.0757 131.515 50.158 131.56 50.2634C131.605 50.3687 131.606 50.4885 131.564 50.5964C131.522 50.7043 131.44 50.7915 131.336 50.8387C131.232 50.886 131.114 50.8894 131.008 50.8483Z" fill="#F5F3FF"/>
</g>
<g filter="url(#filter2_d_1167_5327)">
<rect x="50.8086" y="12.1349" width="70.4781" height="81.8339" rx="10" fill="#A48AFB"/>
<path d="M90.793 72.4839H81.3717C80.3226 72.4839 79.4766 71.7485 79.4766 70.8361C79.4766 69.9166 80.3226 69.181 81.3717 69.181H90.793C91.8412 69.181 92.6881 69.9166 92.6881 70.8361C92.6881 71.7485 91.8412 72.4839 90.793 72.4839Z" fill="#875BF7"/>
<path d="M96.7694 78.1177H75.3341C74.6797 78.1177 74.1562 77.5981 74.1562 76.9438C74.1562 76.2894 74.6797 75.7699 75.3341 75.7699H96.7694C97.4237 75.7699 97.9472 76.2894 97.9472 76.9438C97.9472 77.5789 97.4237 78.1177 96.7694 78.1177Z" fill="#875BF7"/>
<path fill-rule="evenodd" clip-rule="evenodd" d="M86.0542 59.4554C95.747 59.4554 103.605 51.5978 103.605 41.905C103.605 32.2123 95.747 24.3547 86.0542 24.3547C76.3615 24.3547 68.5039 32.2123 68.5039 41.905C68.5039 51.5978 76.3615 59.4554 86.0542 59.4554ZM85.7782 40.7925C87.4931 40.7925 89.0695 41.6547 89.9951 43.0986L92.2254 46.5777C92.5954 47.1552 92.7661 47.822 92.719 48.5064C92.672 49.1906 92.4115 49.8279 91.9658 50.3492C91.5198 50.8705 90.9307 51.2268 90.262 51.3795C90.0265 51.4331 89.7887 51.46 89.5524 51.46C89.1177 51.46 88.6869 51.3696 88.2803 51.1908C86.7038 50.4975 84.8974 50.4914 83.317 51.1726L83.276 51.1908C82.648 51.4669 81.9625 51.532 81.2938 51.3793C80.6251 51.2264 80.036 50.8702 79.5902 50.3489C79.3183 50.0306 79.1154 49.3184 78.9878 48.6561C78.851 47.9454 78.9261 47.1777 79.3312 46.5779L81.5615 43.0986C82.487 41.6547 84.0635 40.7925 85.7782 40.7925ZM88.7657 50.0871C89.5645 50.4383 90.4822 50.2287 91.0495 49.5655C91.6165 48.9025 91.6812 47.9632 91.2102 47.2283L88.9801 43.7492C88.2772 42.6529 87.0803 41.9984 85.7782 41.9984C84.4762 41.9984 83.2795 42.6529 82.5767 43.7492L80.3463 47.2285C79.8755 47.9631 79.94 48.9021 80.5067 49.5655C81.0677 50.2213 81.9719 50.4336 82.7646 50.0984L82.7915 50.0865C83.7403 49.6694 84.7593 49.4608 85.7778 49.4608C86.7972 49.4608 87.8163 49.6695 88.7657 50.0871ZM80.4093 41.6179C80.1574 42.334 79.6533 42.8687 78.9898 43.1235C78.7248 43.2256 78.4432 43.2778 78.1592 43.2775C77.0646 43.2775 75.9819 42.5174 75.5177 41.3135C74.9367 39.8008 75.5482 38.154 76.8808 37.6417C77.5433 37.3863 78.2756 37.4453 78.9424 37.8077C79.5769 38.1528 80.0781 38.7366 80.3537 39.4517C80.6291 40.1673 80.6487 40.9366 80.4093 41.6179ZM77.314 38.7668C76.6013 39.0408 76.3005 39.989 76.643 40.8804C76.9864 41.7709 77.8456 42.2724 78.5573 41.998C78.8853 41.872 79.1391 41.5948 79.2717 41.2179C79.4164 40.8066 79.401 40.3333 79.2285 39.885C79.0559 39.4369 78.7497 39.0754 78.3665 38.8671C78.1534 38.7511 77.932 38.6926 77.7176 38.6926C77.5796 38.6922 77.4428 38.7174 77.314 38.7668ZM86.3092 35.9838C86.3092 37.8818 84.9538 39.426 83.2878 39.426C81.622 39.426 80.2668 37.8818 80.2668 35.9838C80.2668 34.0852 81.622 32.5407 83.2878 32.5407C84.9538 32.5407 86.3092 34.0852 86.3092 35.9838ZM85.1035 35.9838C85.1035 34.7501 84.2889 33.7464 83.2878 33.7464C82.2868 33.7464 81.4725 34.7501 81.4725 35.9838C81.4725 37.2169 82.2868 38.2203 83.2878 38.2203C84.2889 38.2203 85.1035 37.2169 85.1035 35.9838ZM90.2556 40.3974C89.9912 40.3975 89.7283 40.3551 89.4774 40.2717C88.0256 39.789 87.2907 38.0537 87.8392 36.4034C88.0989 35.6211 88.6077 34.9689 89.2716 34.5667C89.9667 34.1458 90.7468 34.046 91.4677 34.2855C92.1886 34.5252 92.7534 35.072 93.0582 35.8251C93.3494 36.5446 93.3666 37.3718 93.1064 38.1541C92.6546 39.5131 91.4705 40.3974 90.2556 40.3974ZM89.8964 35.598C89.4773 35.8519 89.153 36.2728 88.9834 36.7836C88.6446 37.803 89.0369 38.8544 89.8578 39.1275C90.6793 39.4004 91.6234 38.7931 91.9623 37.7737C92.1322 37.2629 92.1244 36.7315 91.9406 36.2773C91.7705 35.857 91.4676 35.5561 91.0875 35.4296C90.7073 35.3033 90.2842 35.3631 89.8964 35.598ZM92.9808 40.6899C93.9441 39.3887 95.6629 39.0213 96.8117 39.87C97.959 40.7196 98.1094 42.4698 97.1469 43.7717C96.5338 44.5993 95.6164 45.0494 94.7346 45.0494C94.2287 45.0494 93.7343 44.9013 93.316 44.5913C92.1688 43.742 92.0183 41.9918 92.9808 40.6899ZM94.0334 43.6223C94.6472 44.0769 95.609 43.8222 96.1779 43.0544C96.7448 42.2874 96.7075 41.2938 96.0947 40.8393C95.8882 40.6866 95.6424 40.6141 95.3857 40.6141C94.878 40.6141 94.3272 40.8975 93.9501 41.4069C93.3828 42.1743 93.4202 43.1683 94.0334 43.6223Z" fill="#F5F3FF"/>
</g>
<defs>
<filter id="filter0_d_1167_5327" x="0.641406" y="7.15721" width="100.803" height="113.421" filterUnits="userSpaceOnUse" color-interpolation-filters="sRGB">
<feFlood flood-opacity="0" result="BackgroundImageFix"/>
<feColorMatrix in="SourceAlpha" type="matrix" values="0 0 0 0 0 0 0 0 0 0 0 0 0 0 0 0 0 0 127 0" result="hardAlpha"/>
<feOffset dx="-1" dy="1"/>
<feGaussianBlur stdDeviation="5.9"/>
<feComposite in2="hardAlpha" operator="out"/>
<feColorMatrix type="matrix" values="0 0 0 0 0 0 0 0 0 0 0 0 0 0 0 0 0 0 0.26 0"/>
<feBlend mode="normal" in2="BackgroundImageFix" result="effect1_dropShadow_1167_5327"/>
<feBlend mode="normal" in="SourceGraphic" in2="effect1_dropShadow_1167_5327" result="shape"/>
</filter>
<filter id="filter1_d_1167_5327" x="69.4383" y="9.60666" width="103.127" height="114.352" filterUnits="userSpaceOnUse" color-interpolation-filters="sRGB">
<feFlood flood-opacity="0" result="BackgroundImageFix"/>
<feColorMatrix in="SourceAlpha" type="matrix" values="0 0 0 0 0 0 0 0 0 0 0 0 0 0 0 0 0 0 127 0" result="hardAlpha"/>
<feOffset dx="-1" dy="1"/>
<feGaussianBlur stdDeviation="5.9"/>
<feComposite in2="hardAlpha" operator="out"/>
<feColorMatrix type="matrix" values="0 0 0 0 0 0 0 0 0 0 0 0 0 0 0 0 0 0 0.26 0"/>
<feBlend mode="normal" in2="BackgroundImageFix" result="effect1_dropShadow_1167_5327"/>
<feBlend mode="normal" in="SourceGraphic" in2="effect1_dropShadow_1167_5327" result="shape"/>
</filter>
<filter id="filter2_d_1167_5327" x="38.0086" y="1.3349" width="94.0766" height="105.434" filterUnits="userSpaceOnUse" color-interpolation-filters="sRGB">
<feFlood flood-opacity="0" result="BackgroundImageFix"/>
<feColorMatrix in="SourceAlpha" type="matrix" values="0 0 0 0 0 0 0 0 0 0 0 0 0 0 0 0 0 0 127 0" result="hardAlpha"/>
<feOffset dx="-1" dy="1"/>
<feGaussianBlur stdDeviation="5.9"/>
<feComposite in2="hardAlpha" operator="out"/>
<feColorMatrix type="matrix" values="0 0 0 0 0 0 0 0 0 0 0 0 0 0 0 0 0 0 0.26 0"/>
<feBlend mode="normal" in2="BackgroundImageFix" result="effect1_dropShadow_1167_5327"/>
<feBlend mode="normal" in="SourceGraphic" in2="effect1_dropShadow_1167_5327" result="shape"/>
</filter>
</defs>
</svg>
