<svg version="1.2" xmlns="http://www.w3.org/2000/svg" viewBox="0 0 384 512" width="22" height="29">
	<title>image</title>
	<style>
		.s0 { fill: #a48bfb } 
	</style>
	<path id="Layer" fill-rule="evenodd" class="s0" d="m224 384h32c17.7 0 32 14.3 32 32 0 17.7-14.3 32-32 32h-32v32c0 17.7-14.3 32-32 32-17.7 0-32-14.3-32-32v-32h-32c-17.7 0-32-14.3-32-32 0-17.7 14.3-32 32-32h32v-34.9c-81.9-15-144-86.8-144-173.1 0-97.2 78.8-176 176-176 97.2 0 176 78.8 176 176 0 86.3-62.1 158.1-144 173.1zm-111.2-128.8c21 21 49.5 32.8 79.2 32.8 29.7 0 58.2-11.8 79.2-32.8 21-21 32.8-49.5 32.8-79.2 0-29.7-11.8-58.2-32.8-79.2-21-21-49.5-32.8-79.2-32.8-29.7 0-58.2 11.8-79.2 32.8-21 21-32.8 49.5-32.8 79.2 0 29.7 11.8 58.2 32.8 79.2z"/>
</svg>