<svg width="22" height="22" viewBox="0 0 22 22" fill="none" xmlns="http://www.w3.org/2000/svg">
<path d="M3 13L4.57465 19.2986C4.61893 19.4757 4.64107 19.5643 4.66727 19.6416C4.92317 20.3971 5.60352 20.9283 6.39852 20.9933C6.4799 21 6.5712 21 6.75379 21C6.98244 21 7.09677 21 7.19308 20.9907C8.145 20.8983 8.89834 20.145 8.99066 19.1931C9 19.0968 9 18.9824 9 18.7538V4.5M17.5 12.5C19.433 12.5 21 10.933 21 9C21 7.067 19.433 5.5 17.5 5.5M9.25 4.5H5.5C3.01472 4.5 0.999998 6.51472 1 9C1 11.4853 3.01472 13.5 5.5 13.5H9.25C11.0164 13.5 13.1772 14.4469 14.8443 15.3556C15.8168 15.8858 16.3031 16.1509 16.6216 16.1119C16.9169 16.0757 17.1402 15.9431 17.3133 15.7011C17.5 15.4401 17.5 14.918 17.5 13.8737V4.12628C17.5 3.08199 17.5 2.55985 17.3133 2.29889C17.1402 2.0569 16.9169 1.9243 16.6216 1.88813C16.3031 1.84912 15.8168 2.1142 14.8443 2.64435C13.1772 3.55311 11.0164 4.5 9.25 4.5Z" stroke="#4CA30D" stroke-width="2" stroke-linecap="round" stroke-linejoin="round"/>
</svg>
