<svg width="24" height="24" fill="none" xmlns="http://www.w3.org/2000/svg"><path d="M16.2 21H6.93137c-.60582 0-.90872 0-1.04899-.1198-.1217-.1039-.18629-.2599-.17373-.4194.01447-.1839.22866-.3981.65704-.8265l8.50291-8.5029c.396-.396.5941-.5941.8224-.6682.2008-.0653.4172-.0653.618 0 .2283.0741.4264.2722.8224.6682L21 15v1.2M16.2 21c1.6802 0 2.5202 0 3.162-.327.5645-.2876 1.0234-.7465 1.311-1.311C21 18.7202 21 17.8802 21 16.2M16.2 21H7.8c-1.68016 0-2.52024 0-3.16197-.327-.56449-.2876-1.02343-.7465-1.31105-1.311C3 18.7202 3 17.8802 3 16.2V7.8c0-1.68016 0-2.52024.32698-3.16197.28762-.56449.74656-1.02343 1.31105-1.31105C5.27976 3 6.11984 3 7.8 3h8.4c1.6802 0 2.5202 0 3.162.32698.5645.28762 1.0234.74656 1.311 1.31105C21 5.27976 21 6.11984 21 7.8v8.4M10.5 8.5c0 1.10457-.89543 2-2 2s-2-.89543-2-2 .89543-2 2-2 2 .89543 2 2Z" stroke="#D9625A" stroke-width="2" stroke-linecap="round" stroke-linejoin="round"/></svg>
