<svg width="32" height="32" fill="none" xmlns="http://www.w3.org/2000/svg"><rect x="1" y="1" width="30" height="30" rx="15" stroke="#6172F3" stroke-width="2"/><path d="M8.81311 17.612c.25592.0003.50969-.0467.74851-.1387.59838-.2299 1.05078-.7118 1.27578-1.3514.2137-.6083.1955-1.2926-.0487-1.927-.2443-.634-.6896-1.1539-1.25595-1.4619h-.00003c-.59559-.3237-1.25426-.3782-1.85182-.1479-1.20513.4634-1.74021 1.9409-1.22645 3.2784l.00004.0001c.4112 1.0664 1.37382 1.7483 2.35862 1.7484Zm0 0 .00012-.1v.1h-.00012Zm1.15143 6.0298h.00003c.39633.4635.92043.7804 1.51483.9163.5944.1357 1.2042.0778 1.7625-.1676l.0004-.0002.0341-.0152c.0002 0 .0004-.0001.0005-.0002 1.3299-.573 2.85-.5678 4.1765.0155l.0403-.0915-.0403.0915c.3613.1589.7445.2394 1.1313.2394.2102 0 .4216-.0239.6308-.0716.5945-.1357 1.1186-.4527 1.515-.9161.3962-.4635.628-1.0304.6698-1.6386.0419-.6084-.11-1.2016-.439-1.715l-1.9128-2.9839c-.8122-1.267-2.1959-2.0238-3.7007-2.0238s-2.8886.7568-3.7007 2.0238v.0001l-1.91217 2.9829c-.36594.5425-.42988 1.2296-.30917 1.8564.05521.2866.12706.586.21525.8493.08729.2607.19398.4968.32353.6485Zm2.78146-.3815h-.0002l-.0217.0096c-.0002.0001-.0005.0002-.0007.0003-.6395.2701-1.3682.0989-1.8208-.4303-.4574-.5354-.5093-1.2924-.1294-1.8853l1.913-2.984c.5843-.9116 1.5789-1.4556 2.6616-1.4556 1.0826 0 2.0774.544 2.6619 1.4556l1.9126 2.9838c.3801.5932.328 1.3504-.1296 1.8856-.4579.5352-1.1978.7043-1.8425.4208-.8272-.3638-1.7149-.5456-2.6029-.5456-.8871 0-1.7747.1816-2.6013.5451Zm-4.31172-9.5805h.00025c.16549 0 .33907.0452.50873.1375h.00005c.30564.1661.5533.4566.69374.8211.1403.3647.15138.746.03599 1.0741h-.00001c-.10546.2998-.30418.5128-.55419.6089h-.00009c-.54043.2083-1.22991-.1684-1.51257-.9012-.28177-.7335-.02315-1.4753.51807-1.6834.09894-.038.20405-.0573.31003-.057ZM18.4888 15.029l.699.0129v.1c1.0906 0 2.1406-.7915 2.5398-1.9924.2302-.692.2158-1.426-.0435-2.0665-.2715-.671-.777-1.1623-1.4252-1.37788v-.00001c-.6482-.21533-1.3476-.12442-1.9668.25055v.00001c-.5911.35803-1.0419.93723-1.2717 1.62923-.4839 1.456.1598 3.009 1.4684 3.4441Zm-.2972-3.0549v-.0001c.1388-.4179.4028-.7586.7399-.9628h.0001c.3111-.1885.6436-.2328.9381-.1351.2943.098.534.3324.6705.6697.1478.3653.1555.7964.0164 1.2143-.2799.8421-1.0444 1.3084-1.6785 1.0978-.6335-.2108-.9664-1.0418-.6865-1.8838Zm6.6786 2.5351-.0001-.0001c-1.0389-.7674-2.5735-.4265-3.4254.7242l-.0001.0001c-.851 1.1511-.729 2.7178.3084 3.4858.3773.2796.8226.4125 1.2762.4125.7898 0 1.6057-.4025 2.1493-1.1363l.0001-.0001c.851-1.1511.7291-2.7177-.3084-3.4861Zm-2.3829 3.2182c-.4657-.3448-.5173-1.1287-.0505-1.7602.3072-.4151.7514-.6394 1.1508-.6394.2011 0 .3905.0566.5486.1735.4654.3453.5168 1.1289.0505 1.7598-.4681.6319-1.2332.8116-1.6994.4663Zm-9.2755-3.4186c1.4959 0 2.6913-1.3818 2.6913-3.0523 0-1.6708-1.1953-3.05288-2.6913-3.05288-1.4958 0-2.691 1.38209-2.691 3.05288 0 1.6705 1.1952 3.0523 2.691 3.0523Zm0-4.87111c.7849 0 1.4573.79551 1.4573 1.81881 0 1.0229-.6724 1.8182-1.4573 1.8182-.7848 0-1.4569-.7953-1.4569-1.8182 0-1.0233.6722-1.81881 1.4569-1.81881Z" fill="#6172F3" stroke="#6172F3" stroke-width=".2"/></svg>
