<svg width="33" height="32" fill="none" xmlns="http://www.w3.org/2000/svg"><rect x="1.5" y="1" width="30" height="30" rx="15" stroke="#6172F3" stroke-width="2"/><path d="M18.6654 7.89127v3.44213c0 .4667 0 .7.0908.8783.0799.1568.2074.2843.3642.3642.1782.0908.4116.0908.8783.0908h3.4421m-4.7754 7.5h-5m6.6666-3.3334h-6.6666m10-2.5098v6.0098c0 1.4002 0 2.1002-.2725 2.635-.2397.4704-.6222.8529-1.0926 1.0925-.5347.2725-1.2348.2725-2.6349.2725H14.332c-1.4001 0-2.1002 0-2.6349-.2725-.4705-.2396-.8529-.6221-1.0926-1.0925-.2725-.5348-.2725-1.2348-.2725-2.635v-8.6666c0-1.4002 0-2.10024.2725-2.63502.2397-.4704.6221-.85286 1.0926-1.09254.5347-.27248 1.2348-.27248 2.6349-.27248h2.6765c.6115 0 .9172 0 1.2049.06907.2551.06124.499.16225.7227.29933.2523.1546.4685.37079.9008.80317l2.6569 2.65687c.4324.4324.6486.6486.8032.9008.137.2237.238.4676.2993.7227.0691.2877.0691.5934.0691 1.2049Z" stroke="#6172F3" stroke-width="1.5" stroke-linecap="round" stroke-linejoin="round"/></svg>
