<svg width="32" height="32" fill="none" xmlns="http://www.w3.org/2000/svg"><rect x="1" y="1" width="30" height="30" rx="15" stroke="#6172F3" stroke-width="2"/><path d="M8.51677 16.5943c-.11349-.1797-.17023-.2695-.202-.4081-.02386-.1041-.02386-.2683 0-.3724.03177-.1386.08851-.2284.202-.4081.93784-1.485 3.72943-5.239 7.98353-5.239 4.2542 0 7.0458 3.754 7.9836 5.239.1135.1797.1702.2695.202.4081.0239.1041.0239.2683 0 .3724-.0318.1386-.0885.2284-.202.4081-.9378 1.485-3.7294 5.239-7.9836 5.239-4.2541 0-7.04569-3.754-7.98353-5.239Z" stroke="#6172F3" stroke-width="1.5" stroke-linecap="round" stroke-linejoin="round"/><path d="M16.5003 18.5c1.3807 0 2.5-1.1193 2.5-2.5s-1.1193-2.5-2.5-2.5-2.5 1.1193-2.5 2.5 1.1193 2.5 2.5 2.5Z" stroke="#6172F3" stroke-width="1.5" stroke-linecap="round" stroke-linejoin="round"/></svg>
