<svg width="32" height="32" fill="none" xmlns="http://www.w3.org/2000/svg"><rect x="1" y="1" width="30" height="30" rx="15" stroke="#6172F3" stroke-width="2"/><path d="m10.2041 22.5459 4.9474-4.9474c.297-.297.4455-.4455.6167-.5011.1507-.049.3129-.049.4636 0 .1712.0556.3197.2041.6167.5011l4.9144 4.9144M17.5 18.25l2.1515-2.1515c.297-.297.4455-.4455.6167-.5011.1507-.049.3129-.049.4636 0 .1712.0556.3197.2041.6167.5011L23.5 18.25m-9-4.5c0 .8284-.6716 1.5-1.5 1.5s-1.5-.6716-1.5-1.5.6716-1.5 1.5-1.5 1.5.6716 1.5 1.5Zm-2.4 9h7.8c1.2601 0 1.8902 0 2.3715-.2452.4233-.2158.7675-.56.9833-.9833.2452-.4813.2452-1.1114.2452-2.3715v-6.3c0-1.2601 0-1.8902-.2452-2.3715-.2158-.4233-.56-.76755-.9833-.98326C21.7902 9.25 21.1601 9.25 19.9 9.25h-7.8c-1.2601 0-1.8902 0-2.37148.24524-.42336.21571-.76757.55996-.98328.98326C8.5 10.9598 8.5 11.5899 8.5 12.85v6.3c0 1.2601 0 1.8902.24524 2.3715.21571.4233.55992.7675.98328.9833.48128.2452 1.11138.2452 2.37148.2452Z" stroke="#6172F3" stroke-width="1.5" stroke-linecap="round" stroke-linejoin="round"/></svg>
