<svg width="23" height="22" viewBox="0 0 23 22" fill="none" xmlns="http://www.w3.org/2000/svg">
<path d="M15.0455 8.92543C15.4195 8.26103 15.7313 7.66151 15.9236 7.20521C16.8573 4.98947 15.934 2.44077 13.6769 1.40112C11.4199 0.361478 9.15341 1.4395 8.15871 3.52093C6.25657 2.2157 3.71918 2.40739 2.31989 4.44424C0.920593 6.48108 1.35975 9.14203 3.27629 10.594C4.1461 11.253 5.86636 12.2242 7.48596 13.0884M15.7972 10.7499C15.3751 8.482 13.4454 6.82334 11.0156 7.27415C8.58592 7.72497 7.01488 9.91708 7.34335 12.299C7.60725 14.2127 9.06392 18.7027 9.62641 20.394C9.70316 20.6248 9.74154 20.7402 9.81753 20.8206C9.88372 20.8907 9.97174 20.9416 10.0655 20.9638C10.1732 20.9894 10.2923 20.9649 10.5306 20.916C12.2765 20.5575 16.8933 19.574 18.6826 18.8457C20.9096 17.9392 22.0589 15.4841 21.1981 13.153C20.3372 10.8219 17.9723 9.98151 15.7972 10.7499Z" stroke="#875BF7" stroke-width="2" stroke-linecap="round" stroke-linejoin="round"/>
</svg>
