<svg version="1.2" xmlns="http://www.w3.org/2000/svg" viewBox="0 0 85 64" width="85" height="64">
	<title>logo-svg</title>
	<style>
		.s0 { fill: #835031 } 
	</style>
	<path id="Layer" class="s0" d="m65.7 48.3c0 10.9-15 15.7-25.9 15.7-10.9 0-24.5-8.8-24.5-19.7 0-10.9 13.6-9.6 24.5-9.6 10.9 0 25.9 2.7 25.9 13.6z"/>
	<path id="Layer" class="s0" d="m25.5 18.4c0 5.2-7 8.8-12.2 8.8-5.3 0-12.3-2.9-12.3-8.1 0-5.3 6.3-8.9 11.6-8.9 5.2 0 12.9 2.9 12.9 8.2z"/>
	<path id="Layer" class="s0" d="m56.6 19.3c-2.6 4.6-10.5 4.2-15 1.6-4.6-2.7-9.2-8.7-6.6-13.2 2.7-4.6 9.9-4.5 14.5-1.9 4.6 2.6 9.7 9 7.1 13.5z"/>
	<path id="Layer" class="s0" d="m80.8 38.4c-4.4 3-11.3-0.7-14.3-5-3-4.4-4.6-11.8-0.2-14.8 4.3-2.9 10.8 0.2 13.8 4.5 3 4.4 5 12.3 0.7 15.3z"/>
</svg>