<svg xmlns="http://www.w3.org/2000/svg" version="1.1" xmlns:xlink="http://www.w3.org/1999/xlink" xmlns:svgjs="http://svgjs.dev/svgjs" viewBox="0 0 800 800"><defs><filter id="ssspot-filter" x="-20%" y="-20%" width="140%" height="140%" filterUnits="objectBoundingBox" primitiveUnits="userSpaceOnUse" color-interpolation-filters="sRGB">
	<feTurbulence type="turbulence" baseFrequency="0.022 0.218" numOctaves="2" seed="55" stitchTiles="stitch" x="0%" y="0%" width="100%" height="100%" result="turbulence"></feTurbulence>
	<feGaussianBlur stdDeviation="0 3" x="0%" y="0%" width="100%" height="100%" in="turbulence" edgeMode="duplicate" result="blur"></feGaussianBlur>
	<feDisplacementMap in="SourceGraphic" in2="blur" scale="32" xChannelSelector="R" yChannelSelector="B" x="0%" y="0%" width="100%" height="100%" result="displacementMap"></feDisplacementMap>
</filter></defs><rect width="100%" height="100%" fill="#ffffeb"></rect><g fill="#f2a95c" filter="url(#ssspot-filter)"><circle r="7.101503334518981" cx="99.54730476236695" cy="21.339545497396237" opacity="0.9133147169442749"></circle><circle r="5.45737219519502" cx="230.46249432687915" cy="53.69358359658154" opacity="0.1263563568809559"></circle><circle r="7.122344493728914" cx="456.38177071503395" cy="106.4821549955433" opacity="0.30440517292634384"></circle><circle r="8.191434608837644" cx="697.9689030462748" cy="515.4070307220186" opacity="0.3403670108247466"></circle><circle r="7.503195421565787" cx="596.273452558484" cy="84.34252991441177" opacity="0.9438468263964711"></circle><circle r="6.169777763093496" cx="350.82349736080675" cy="305.356519491981" opacity="0.8613831511922873"></circle><circle r="8.166501481292006" cx="379.47475345122376" cy="285.0543666866219" opacity="0.39390711620217256"></circle><circle r="8.545710336917265" cx="312.32365515912187" cy="360.19501670236" opacity="0.3399722213053016"></circle><circle r="6.847802119251563" cx="459.04316904784423" cy="17.760666488973065" opacity="0.9172276524767279"></circle><circle r="5.850859837286267" cx="370.421947536692" cy="331.2002854401532" opacity="0.22711766606677694"></circle><circle r="4.583566174454652" cx="441.44420633648457" cy="633.7121586628762" opacity="0.5459169773396537"></circle><circle r="8.769087918507415" cx="223.68605753757285" cy="739.9728895947576" opacity="0.4977096388612666"></circle><circle r="4.637010353785165" cx="19.49591273207864" cy="402.15701224506165" opacity="0.31588208078082197"></circle><circle r="5.27493470525827" cx="11.161432458302619" cy="25.459974566412438" opacity="0.39413270159571867"></circle><circle r="6.8687503444541775" cx="677.5929630608049" cy="131.61016290076722" opacity="0.952260706532847"></circle><circle r="10.73511826244015" cx="169.36424826645302" cy="398.5041818404809" opacity="0.3858464387165337"></circle><circle r="7.2176779342272095" cx="661.5288506407082" cy="165.59953353819967" opacity="0.22648513630158298"></circle><circle r="8.859692112796154" cx="506.73704987970234" cy="556.183122483531" opacity="0.2115258183742847"></circle><circle r="5.007241602526374" cx="681.7778976875404" cy="316.15097978835786" opacity="0.5534622656434022"></circle><circle r="3.949714653576942" cx="473.5897636264754" cy="186.63436985331398" opacity="0.13213968975880203"></circle><circle r="4.721918761466636" cx="24.507059670800984" cy="369.94670467795675" opacity="0.9117783446631075"></circle><circle r="7.059777474368626" cx="59.003415820068966" cy="421.0801947640592" opacity="0.23267428797289738"></circle><circle r="8.539343810563855" cx="175.93477137757915" cy="510.2074407851265" opacity="0.516695819779681"></circle><circle r="5.939320658047935" cx="263.6816576921938" cy="129.2101821163934" opacity="0.8765254375725275"></circle><circle r="5.561999312927105" cx="398.8804299970934" cy="105.17239410978705" opacity="0.2124479319502413"></circle><circle r="7.0097294604754286" cx="646.2782340406995" cy="425.6448875313008" opacity="0.6639385750998933"></circle><circle r="6.358916759430116" cx="383.6995693076321" cy="425.096906137944" opacity="0.520648986286917"></circle><circle r="5.101042415985748" cx="420.32797943303154" cy="201.46112603892328" opacity="0.5539246037083264"></circle><circle r="12.999786598857622" cx="221.3714434325656" cy="685.2875924075249" opacity="0.9225524831516594"></circle><circle r="9.25468778164095" cx="317.21321169987937" cy="23.851419280110388" opacity="0.25239148919177534"></circle><circle r="6.884778773443903" cx="409.81061806264927" cy="340.5546162032046" opacity="0.9750629239955518"></circle><circle r="10.24391552233486" cx="540.1951584617713" cy="489.2425041266075" opacity="0.19311788673886177"></circle><circle r="13.047581117056346" cx="276.65239093839506" cy="421.22254288358164" opacity="0.6584801190419832"></circle><circle r="7.091231602682088" cx="191.95445009416125" cy="434.4649173644067" opacity="0.4563780778705234"></circle><circle r="11.209993232998418" cx="172.33879461936664" cy="251.09577582952014" opacity="0.870952941355295"></circle><circle r="5.172257365041118" cx="492.3658477487742" cy="654.1813614561355" opacity="0.534499104725851"></circle><circle r="6.276667593404143" cx="15.738232867620985" cy="480.19537815521034" opacity="0.769120420973288"></circle><circle r="10.395515861918245" cx="99.40595786083912" cy="767.2579376926958" opacity="0.4308849642331678"></circle><circle r="9.336495618917912" cx="359.93055178127037" cy="364.9187425350979" opacity="0.910160405975803"></circle><circle r="5.960132932764647" cx="459.17749835018094" cy="308.60345628380577" opacity="0.5566430206693389"></circle><circle r="9.351188183942432" cx="408.1997682026034" cy="510.11104526937515" opacity="0.518616368814446"></circle><circle r="6.972142410258819" cx="18.502270320881397" cy="336.9353191027376" opacity="0.8763389306457472"></circle><circle r="7.9506182586842264" cx="508.9837395546881" cy="769.9171372813445" opacity="0.6531348524892708"></circle><circle r="6.094921659882525" cx="280.4385032933578" cy="267.0957054824865" opacity="0.7457130064346378"></circle><circle r="5.9637799984051085" cx="158.02720063131306" cy="121.39265797817755" opacity="0.3462892969684632"></circle><circle r="7.549469611553871" cx="730.5737918192413" cy="696.9407002285511" opacity="0.943163332921812"></circle><circle r="7.509055484809975" cx="388.54608430510297" cy="252.35546211615286" opacity="0.38694427694397626"></circle><circle r="9.987228217787155" cx="627.6098292754076" cy="577.387443766678" opacity="0.8733305628447421"></circle><circle r="9.778014931589935" cx="178.78957268631103" cy="568.3412873491386" opacity="0.46387751676732814"></circle><circle r="8.914556222603641" cx="394.37074562478233" cy="712.6199119519099" opacity="0.2201831621888496"></circle><circle r="9.539198430751096" cx="770.7715900950641" cy="113.12863286413663" opacity="0.7825572933149827"></circle><circle r="9.025950421711169" cx="122.1637148298207" cy="289.5494622870957" opacity="0.6883873149424851"></circle><circle r="12.648370440221235" cx="64.55123284799062" cy="715.6632633767987" opacity="0.8143125482016083"></circle><circle r="8.727525110408848" cx="150.54879639187337" cy="614.1141700910084" opacity="0.7541648061535836"></circle><circle r="8.938367958106804" cx="482.73299123228196" cy="508.02368862999464" opacity="0.3543880470581048"></circle><circle r="8.383318966457065" cx="176.91266272484032" cy="16.869424480702104" opacity="0.9448055513758317"></circle><circle r="10.342465920664424" cx="498.66137027112586" cy="283.7426273698792" opacity="0.9633531890924997"></circle><circle r="9.65055495747237" cx="44.23352687133266" cy="22.652835004305473" opacity="0.43945425255959036"></circle><circle r="7.010523701800284" cx="148.0941207013501" cy="448.5613118391828" opacity="0.23196549466636637"></circle><circle r="9.551853718115424" cx="317.11889003891554" cy="572.9566452745456" opacity="0.6628003095899"></circle><circle r="6.521534907713316" cx="346.5122342352878" cy="261.45496042998803" opacity="0.3835203053515748"></circle><circle r="8.803589926488453" cx="679.7506679776287" cy="652.9648774728752" opacity="0.6136083358663108"></circle><circle r="9.669391148944825" cx="635.7667364930589" cy="623.5997105887335" opacity="0.9206494196511126"></circle><circle r="5.835764306187208" cx="776.6814059518042" cy="36.87737719011631" opacity="0.18292398497431794"></circle><circle r="6.8590630191562925" cx="94.22117675639245" cy="216.5027608460481" opacity="0.6349376780881705"></circle><circle r="7.638365854187955" cx="148.5679717421043" cy="48.51848204118433" opacity="0.15330697868431573"></circle><circle r="5.876472849920747" cx="633.3015083657638" cy="320.0355662335522" opacity="0.8514984026853684"></circle><circle r="9.565182773057002" cx="180.3021211984255" cy="155.0134200575085" opacity="0.5658104350238379"></circle><circle r="5.251937944785002" cx="59.98804170007959" cy="236.0625413878972" opacity="0.8003204708566717"></circle><circle r="5.954534706717372" cx="711.0090982386613" cy="115.56152836622104" opacity="0.7617814770744096"></circle><circle r="6.337546016076559" cx="759.5313580612583" cy="514.0543095458187" opacity="0.15213739695971568"></circle><circle r="11.281663782462015" cx="769.5220539973469" cy="706.8243302123855" opacity="0.49317825271244997"></circle><circle r="11.381231035173263" cx="173.01970073246767" cy="724.0842799737762" opacity="0.3407606849723482"></circle><circle r="10.086447620804227" cx="737.7393118357534" cy="390.8765861743157" opacity="0.4863314373248978"></circle><circle r="6.016581717427615" cx="147.15201056399619" cy="355.9793958015271" opacity="0.39120024703436707"></circle><circle r="7.847449241817884" cx="673.4294285529916" cy="261.8304954144234" opacity="0.6272672348925417"></circle><circle r="6.644724189842967" cx="541.6463108503235" cy="548.8980192308871" opacity="0.10048944487428012"></circle><circle r="6.371619496139296" cx="717.809784573355" cy="270.2697621907698" opacity="0.20595459071666067"></circle><circle r="8.641930029408858" cx="405.33411908438643" cy="576.9059919901034" opacity="0.8626576622794553"></circle><circle r="7.598083927324945" cx="647.0510836762767" cy="99.6946982599412" opacity="0.7591406707996299"></circle><circle r="10.801058916638969" cx="97.13822881078264" cy="551.7131588998851" opacity="0.37056322858956414"></circle><circle r="5.780068711415865" cx="652.3883450587676" cy="19.857837911315844" opacity="0.4306886206857551"></circle><circle r="7.863461981601633" cx="66.99371998748015" cy="282.72604478257875" opacity="0.3721946563284655"></circle><circle r="8.432539490922867" cx="191.61465658522343" cy="475.69054571324085" opacity="0.8767339222263568"></circle><circle r="6.036279257338306" cx="453.5052495031716" cy="390.8853029782223" opacity="0.42555303349190776"></circle><circle r="6.360869063468602" cx="509.92583864044366" cy="16.409835352125896" opacity="0.6560460386459693"></circle><circle r="5.768632985411485" cx="382.009423577128" cy="218.0282365904877" opacity="0.7364503763525841"></circle><circle r="6.699832896837831" cx="636.1274412085992" cy="664.1076791106765" opacity="0.8339692111275897"></circle><circle r="4.7584184975272" cx="633.2845458680472" cy="187.7263472417304" opacity="0.1923293698215517"></circle><circle r="5.026576085822182" cx="779.0785773676882" cy="300.88272383121824" opacity="0.25735277349352137"></circle><circle r="6.725020244081765" cx="698.7225850295096" cy="352.158433069424" opacity="0.17112293295528314"></circle><circle r="6.744330682173687" cx="556.0715022549899" cy="134.36260915490627" opacity="0.3160166993527727"></circle><circle r="10.587940864194763" cx="735.277292646203" cy="609.7713563667453" opacity="0.2749739080878745"></circle><circle r="5.121594521457507" cx="407.85876575690605" cy="151.87805211729176" opacity="0.8495766362743262"></circle><circle r="6.382464150905829" cx="305.5064943384712" cy="285.3588624137614" opacity="0.33056455520793027"></circle><circle r="6.886915901296239" cx="306.53504169682674" cy="244.26793420083132" opacity="0.663152172892872"></circle><circle r="4.782135844291105" cx="440.49931463628775" cy="344.1695349790665" opacity="0.7264447116317723"></circle><circle r="8.620623111688202" cx="691.1677146320158" cy="78.92874243758504" opacity="0.6080855110224872"></circle><circle r="7.055593343883898" cx="441.5715305341041" cy="140.99747524699606" opacity="0.27178260501532636"></circle><circle r="5.931107944430768" cx="16.832387379617092" cy="555.7659362011287" opacity="0.29188573506884485"></circle><circle r="4.703867311918804" cx="783.2614151445583" cy="163.7662181858498" opacity="0.544045840063102"></circle><circle r="4.388539788371977" cx="255.40352686644994" cy="203.55739739227016" opacity="0.6565255023357036"></circle><circle r="4.9756644615751995" cx="471.8571425611554" cy="586.277415218117" opacity="0.2265582599453667"></circle><circle r="4.758024632840553" cx="675.0761614001831" cy="781.5791328508523" opacity="0.3785228910443603"></circle><circle r="7.720862230344531" cx="770.4951137139689" cy="468.8338907672469" opacity="0.8646430650271004"></circle><circle r="9.107914921523925" cx="619.4462439791691" cy="238.4555711923917" opacity="0.7298860862073059"></circle><circle r="8.369730172867452" cx="398.4374668548154" cy="634.0988081369788" opacity="0.5526694486617701"></circle><circle r="12.48782260184428" cx="50.82029570033844" cy="159.28824260545835" opacity="0.3383999669192005"></circle><circle r="7.210438097607333" cx="394.2802899990063" cy="378.4890563475838" opacity="0.6901188969726887"></circle><circle r="3.9908340043297654" cx="322.82600349702614" cy="312.1976521324973" opacity="0.7723678443412828"></circle><circle r="7.344486778311584" cx="460.4736188042945" cy="61.518702676484864" opacity="0.7484354170028394"></circle><circle r="6.359755141498891" cx="554.3157271964569" cy="321.1902985622979" opacity="0.49189609494464337"></circle><circle r="7.943017859965652" cx="540.0401886155178" cy="383.0819181325327" opacity="0.8707046073085529"></circle><circle r="6.262453672299775" cx="671.974024515966" cy="565.1279964646211" opacity="0.7196734018142318"></circle><circle r="10.32341609788149" cx="371.63346210740406" cy="488.0354177330365" opacity="0.446899877682433"></circle><circle r="7.701654248385578" cx="204.94374336436385" cy="100.8100611849909" opacity="0.5734425628036004"></circle><circle r="9.531149888965494" cx="222.3683376997069" cy="229.6300618424021" opacity="0.650134407049798"></circle><circle r="9.939144378600645" cx="271.99185880100464" cy="581.9148290022408" opacity="0.43272347564699165"></circle><circle r="7.440110608483497" cx="419.60943674883305" cy="254.30594277049204" opacity="0.2235642885787637"></circle><circle r="3.6070451200613887" cx="782.6393461737699" cy="241.95959014787024" opacity="0.6762908833543159"></circle><circle r="6.40279144860871" cx="372.03421399984774" cy="593.4755792988501" opacity="0.9188815970032147"></circle><circle r="5.723392939936167" cx="189.80685699699654" cy="63.327559158490054" opacity="0.2870237535768393"></circle><circle r="4.806627116271082" cx="785.9107279398663" cy="784.7192947733486" opacity="0.33875089779719286"></circle><circle r="8.059915792065638" cx="683.9027406715078" cy="393.01666130932733" opacity="0.3358550749102446"></circle><circle r="8.240452073522562" cx="692.0208504219705" cy="699.8937289502119" opacity="0.31123667277512324"></circle><circle r="6.269115544569608" cx="283.5161146929002" cy="343.68950283674474" opacity="0.38912505035416833"></circle><circle r="5.7692166770048985" cx="218.45848417869803" cy="141.61048348837667" opacity="0.6376170604185717"></circle><circle r="5.743584034242482" cx="21.317034472037726" cy="437.1262675365873" opacity="0.8297574768617924"></circle><circle r="8.712548601822645" cx="431.5181616863459" cy="470.7139223282342" opacity="0.39820875669829847"></circle><circle r="4.764584054960399" cx="646.0814697046491" cy="131.0797691508895" opacity="0.5948046109869604"></circle><circle r="4.205560125779188" cx="477.0612781266694" cy="160.99281323304618" opacity="0.8456481801538472"></circle><circle r="5.1670728107886275" cx="63.60443511086479" cy="464.8435484360393" opacity="0.4750311362380133"></circle><circle r="7.960948238402818" cx="391.5397786644169" cy="782.8526405265359" opacity="0.32875313259676914"></circle><circle r="11.148815048612509" cx="571.9624318894423" cy="606.859574934662" opacity="0.466915464172567"></circle><circle r="10.659834669068335" cx="775.6667232279972" cy="642.85011576682" opacity="0.6523516135574513"></circle><circle r="9.00204888605906" cx="35.73048637433556" cy="771.4977430512286" opacity="0.46047757769308384"></circle><circle r="11.972243161875998" cx="19.05093321010429" cy="627.5105411497951" opacity="0.5271626929877965"></circle><circle r="7.502600906141877" cx="119.60560696222905" cy="398.492506469311" opacity="0.10972303135937594"></circle><circle r="9.329928226581687" cx="290.78983876158384" cy="649.011286929488" opacity="0.14800143154151504"></circle><circle r="9.19101409974898" cx="648.8606599081916" cy="62.48291229996382" opacity="0.5452423779415407"></circle><circle r="8.741589852257034" cx="428.09718302723445" cy="423.0096270419987" opacity="0.3545960054376691"></circle><circle r="5.788926599675676" cx="516.7474869868925" cy="97.23587037571396" opacity="0.2739958286699521"></circle><circle r="8.339655150096647" cx="404.50063670973526" cy="308.5712686035107" opacity="0.9969239591521373"></circle><circle r="6.044687774198298" cx="249.37279330862643" cy="18.248043155944412" opacity="0.8509744087699688"></circle><circle r="9.998488277898723" cx="380.0144702516247" cy="669.2939994707797" opacity="0.9397411872560785"></circle><circle r="10.543932496570422" cx="287.15241609568096" cy="506.7008049254799" opacity="0.7335946093883114"></circle><circle r="5.783612541085756" cx="759.1392474646519" cy="277.5471399288265" opacity="0.9571393044993237"></circle><circle r="6.382139191218704" cx="747.2151085811535" cy="253.6066307930852" opacity="0.8598964500684765"></circle><circle r="8.388845987409926" cx="530.7064666733052" cy="618.3053467541891" opacity="0.800007249524281"></circle><circle r="3.370960038318281" cx="705.3730692601504" cy="296.5760618470151" opacity="0.6193723318623248"></circle><circle r="5.929689372954464" cx="125.70757653027266" cy="584.6183841129191" opacity="0.5782351367513862"></circle><circle r="6.296091837612462" cx="467.1543422499322" cy="436.1179834009481" opacity="0.5025117761301281"></circle><circle r="5.165023919459547" cx="446.0746407169641" cy="664.771969814522" opacity="0.677984110889893"></circle><circle r="8.494475056376825" cx="112.55859593274108" cy="647.137605339221" opacity="0.3179135213092189"></circle><circle r="7.438811575511616" cx="464.7980312874164" cy="775.2803994249172" opacity="0.42562940167784424"></circle><circle r="9.38477793296288" cx="227.17626460760567" cy="385.2280068446737" opacity="0.4343922108416366"></circle><circle r="6.575563222034847" cx="500.0833171282279" cy="227.66380205586253" opacity="0.6226082545188599"></circle><circle r="7.290245082516025" cx="62.345041428212234" cy="103.92626349707484" opacity="0.1508063695430075"></circle><circle r="8.294500595181791" cx="512.0271024455675" cy="334.0019888178262" opacity="0.15894376324720164"></circle><circle r="10.340788538626219" cx="240.08443342941646" cy="544.7316523075501" opacity="0.4441208339834789"></circle><circle r="5.466704238486488" cx="333.25301378494925" cy="659.3218495169754" opacity="0.4269904560745008"></circle><circle r="11.466448402976429" cx="277.83967355406753" cy="718.9579296514796" opacity="0.10292283947915955"></circle><circle r="5.469828752473723" cx="775.2128076370807" cy="429.7832794067829" opacity="0.3164367242835162"></circle><circle r="7.745763812038872" cx="593.3014100976687" cy="172.65448676702204" opacity="0.5238712941490389"></circle><circle r="8.028487415150158" cx="243.82855939084837" cy="484.28883049376145" opacity="0.2560539022267203"></circle><circle r="9.444519537120996" cx="231.14083020186817" cy="430.7031528533739" opacity="0.17341977795767086"></circle><circle r="9.508027693669836" cx="317.93159086417074" cy="97.79964829353361" opacity="0.3102508462050467"></circle><circle r="8.351653272684631" cx="365.93768326667026" cy="36.82394713794054" opacity="0.6289246336842524"></circle><circle r="8.991413885023587" cx="497.74933511068787" cy="472.0692691546269" opacity="0.9247988841621481"></circle><circle r="13.047194502722128" cx="536.0593907581681" cy="182.90039531795443" opacity="0.9882923028045764"></circle><circle r="9.181762314620727" cx="591.792585255834" cy="417.8283528895882" opacity="0.7927322674698195"></circle><circle r="10.247936690552262" cx="655.9025264915911" cy="514.9453467159901" opacity="0.7460527174346621"></circle><circle r="4.663288352884377" cx="691.0613352427371" cy="175.60717758887674" opacity="0.4962764270497665"></circle><circle r="13.262610514128683" cx="330.5798152200711" cy="449.5610399526459" opacity="0.10799763377363016"></circle><circle r="9.593892173414336" cx="136.6221217432718" cy="530.8116713319376" opacity="0.7518387172787744"></circle><circle r="8.66655374921557" cx="220.73638579324418" cy="280.3442944057432" opacity="0.11969596825845352"></circle><circle r="6.579855500413958" cx="679.1208632635768" cy="610.9149400448609" opacity="0.5410343645060938"></circle><circle r="8.554396689510622" cx="619.1701458408659" cy="387.56246397886457" opacity="0.2175515570808934"></circle><circle r="8.951026172402157" cx="196.21916935507616" cy="632.0018997470463" opacity="0.2600441994599956"></circle><circle r="6.236585961723465" cx="692.7864331515643" cy="227.7486224667747" opacity="0.2467571573032707"></circle><circle r="13.368566771700385" cx="117.97656119879308" cy="706.4831078226163" opacity="0.40830460872318275"></circle><circle r="6.789725253004923" cx="99.99307986596898" cy="68.09394701921502" opacity="0.9250207498963388"></circle><circle r="8.515488022607816" cx="71.67138341071119" cy="383.782677598449" opacity="0.2155663128468819"></circle><circle r="7.9446634752884435" cx="548.6409122575466" cy="434.5713460703677" opacity="0.8440730363881229"></circle><circle r="7.080680235193876" cx="265.3436906384032" cy="238.22893203856188" opacity="0.6918094272044117"></circle><circle r="10.570441283307375" cx="777.0895052309512" cy="379.0554124661067" opacity="0.9161815235664936"></circle><circle r="7.370475592773058" cx="545.6879547738826" cy="664.5532678583015" opacity="0.6394036146845615"></circle><circle r="5.009913239696651" cx="499.5081463305845" cy="695.1033602931547" opacity="0.6918602411208972"></circle><circle r="7.297720787141419" cx="571.7136127668239" cy="515.7120090142323" opacity="0.8709500128065452"></circle><circle r="4.5289510075234976" cx="425.0874644693462" cy="546.7963857205712" opacity="0.47328213904077854"></circle><circle r="7.283051632973947" cx="543.7839975870121" cy="276.1257708077306" opacity="0.5623795580071801"></circle><circle r="9.87406201329786" cx="647.1831007375192" cy="358.95700799158834" opacity="0.19270903025074484"></circle><circle r="6.84512432809545" cx="664.0915791144149" cy="464.3188239939843" opacity="0.22912304578361845"></circle><circle r="6.28235928092619" cx="24.335987955268795" cy="191.0401763549748" opacity="0.7693793068419996"></circle><circle r="9.848331705229409" cx="285.4644304279747" cy="61.85292248513538" opacity="0.6732352669943434"></circle><circle r="6.12793631688544" cx="550.110869359915" cy="773.2024272887463" opacity="0.4057090786578935"></circle><circle r="3.131163826996958" cx="788.8184608302331" cy="269.6031966502869" opacity="0.43693400223290757"></circle><circle r="5.115563727578031" cx="485.174988058672" cy="729.9649316732933" opacity="0.839331983074097"></circle><circle r="7.409731013757924" cx="357.55432985749707" cy="139.36764541858304" opacity="0.7378289689873309"></circle><circle r="9.880982151678598" cx="544.168940207227" cy="235.42872482840383" opacity="0.5779712307200295"></circle><circle r="5.22133355731679" cx="426.38546062753665" cy="376.14862907922344" opacity="0.2341777997945117"></circle><circle r="5.267365077563359" cx="108.88658215993968" cy="343.5805574609574" opacity="0.6393734217007532"></circle><circle r="7.153783213425183" cx="595.942618614831" cy="667.5802081565952" opacity="0.4437966538781425"></circle><circle r="8.691008946989772" cx="715.4907589708163" cy="196.8346013515696" opacity="0.863999972760197"></circle><circle r="6.678252428418946" cx="241.0451219077593" cy="340.558991382227" opacity="0.5759584380437114"></circle><circle r="6.61112757866908" cx="721.3546756449331" cy="555.9050332541591" opacity="0.9293480650194694"></circle><circle r="5.972085337155837" cx="213.07621949456666" cy="593.1050833861908" opacity="0.18980317620540516"></circle><circle r="7.423882231127482" cx="579.0657688920209" cy="43.82625725901428" opacity="0.30396107865880706"></circle><circle r="7.699151593118493" cx="732.2890611625443" cy="227.54899919898892" opacity="0.20961880807638197"></circle><circle r="8.576032104606229" cx="246.83899564306293" cy="634.7131136929787" opacity="0.11564631662024805"></circle><circle r="7.7247699436296235" cx="605.5048701318465" cy="123.10115830070055" opacity="0.7703316414128968"></circle><circle r="9.62549136127967" cx="123.74363002637959" cy="165.34999320033106" opacity="0.925243977002589"></circle><circle r="7.467602001529" cx="708.4423441494444" cy="584.7872747900332" opacity="0.12957881504459273"></circle><circle r="9.161925990203255" cx="306.99993239500577" cy="199.94951922951552" opacity="0.4761513074466833"></circle><circle r="7.6696830207250715" cx="499.18715063715456" cy="138.41917106413192" opacity="0.9092134195755646"></circle><circle r="10.78972230678857" cx="587.0981844960372" cy="561.71939387009" opacity="0.8956218615890337"></circle><circle r="7.8474913889923945" cx="721.5139922926677" cy="653.220238542308" opacity="0.42977449522363187"></circle><circle r="9.552244789267963" cx="23.47217897258971" cy="298.43305593486315" opacity="0.8211600020364804"></circle><circle r="10.842071780507975" cx="438.6426949632787" cy="702.6961166426324" opacity="0.632759099022772"></circle><circle r="6.380388392797864" cx="503.3750432257921" cy="376.2420612744299" opacity="0.756048081512295"></circle><circle r="5.488919301878733" cx="363.5855387245763" cy="88.16600726390696" opacity="0.5624299733228995"></circle><circle r="7.428389942568231" cx="737.1409584871582" cy="325.0529296520196" opacity="0.909697643585962"></circle><circle r="9.232009574998003" cx="777.0865219452223" cy="337.633431902585" opacity="0.2874866413440109"></circle><circle r="4.426672297195976" cx="564.2205127490357" cy="12.302666982992061" opacity="0.3795357969972176"></circle><circle r="6.873266698747812" cx="329.43875794502344" cy="507.53002750759435" opacity="0.7134614801462281"></circle><circle r="9.59568674653154" cx="140.08848597111594" cy="215.20043297582845" opacity="0.473976796921603"></circle><circle r="6.178450961513753" cx="361.9616290754525" cy="749.855871254645" opacity="0.8847190466170805"></circle><circle r="6.349556589955339" cx="743.9288223152282" cy="536.2449256116452" opacity="0.9388604893052099"></circle><circle r="9.730933759399242" cx="18.006505857443408" cy="112.87157597227949" opacity="0.5770852113366437"></circle><circle r="11.261433598752674" cx="329.3794586354503" cy="398.71430321858094" opacity="0.9835385062305109"></circle><circle r="6.40753089694225" cx="551.2553743113239" cy="80.51719249845033" opacity="0.6359312005466269"></circle><circle r="9.145195240520025" cx="459.8327315500194" cy="539.9404339344046" opacity="0.48208471270220177"></circle><circle r="8.186857497801789" cx="253.73065007272766" cy="778.1805507482579" opacity="0.86119142305748"></circle><circle r="5.487514272608067" cx="368.5711109363656" cy="180.122591238811" opacity="0.5842813143936103"></circle><circle r="4.745470262835254" cx="726.7339071942529" cy="148.76959369818397" opacity="0.5200915272729715"></circle><circle r="5.848531415300835" cx="344.88867904910927" cy="619.9200918291788" opacity="0.7104925216921919"></circle><circle r="8.675404803784877" cx="750.4269545149442" cy="181.6720823173103" opacity="0.9296182868407584"></circle><circle r="11.078456334017641" cx="62.48149888618452" cy="598.4099078533359" opacity="0.46203651160163395"></circle><circle r="9.648455808750523" cx="316.9845179186368" cy="773.8937925960115" opacity="0.5386345137377554"></circle><circle r="5.893401349631924" cx="610.5161473763645" cy="29.655479207553785" opacity="0.8079038954066012"></circle><circle r="5.679997761085823" cx="194.59278491521312" cy="193.9028909194477" opacity="0.4128902506631431"></circle><circle r="9.94337615430004" cx="164.38331471237154" cy="667.7417949345153" opacity="0.6681149399663608"></circle><circle r="6.786033092403386" cx="712.0061085396827" cy="24.580085838922262" opacity="0.3544447303088105"></circle><circle r="11.607689743990356" cx="180.75441576381493" cy="304.7112905975588" opacity="0.5336492664730619"></circle><circle r="6.112490998390957" cx="138.34628426321896" cy="91.0533288122959" opacity="0.7312942708763354"></circle><circle r="7.691356012476779" cx="58.09118317884214" cy="549.6066862750124" opacity="0.7528285459040657"></circle><circle r="9.272563747887062" cx="582.5852588585758" cy="212.72091201567085" opacity="0.24563479034569896"></circle><circle r="10.822917141880595" cx="65.3523084161566" cy="336.4916372355817" opacity="0.38262851139561727"></circle><circle r="7.020905868775202" cx="623.8668538931895" cy="152.5214094620606" opacity="0.46197187784647686"></circle><circle r="7.273920690422562" cx="252.0814852153421" cy="94.00830501052405" opacity="0.17705317496573325"></circle><circle r="5.975597998946973" cx="188.75362032765685" cy="779.4283588430877" opacity="0.24919579127784228"></circle><circle r="8.348018419293602" cx="657.5586665659415" cy="215.59342443757976" opacity="0.5955211828818621"></circle><circle r="11.448592357812382" cx="412.7667443508076" cy="29.566420299819114" opacity="0.16197829838083114"></circle><circle r="8.955053115228182" cx="690.9634725605636" cy="739.0332176837628" opacity="0.11692971126510003"></circle><circle r="8.94796443427006" cx="342.0073010932126" cy="220.52112639013208" opacity="0.8107699696177416"></circle><circle r="8.67831260007507" cx="647.3304837061788" cy="702.3866989490663" opacity="0.6402329610436099"></circle><circle r="10.952156688585113" cx="589.6110165312638" cy="276.80721716209297" opacity="0.5934686116242679"></circle><circle r="8.61481304084912" cx="562.7810073469433" cy="717.5434312712621" opacity="0.6554102676614857"></circle><circle r="3.6816840172186724" cx="476.47398184865176" cy="363.04043682910464" opacity="0.683726226001409"></circle><circle r="9.41304499489455" cx="457.99953429417144" cy="251.56422036077754" opacity="0.3391606909378234"></circle><circle r="6.1594224531854405" cx="714.9650245546256" cy="433.7403241480024" opacity="0.6052838359894884"></circle><circle r="5.90908705709975" cx="116.8607975164736" cy="488.37936071646374" opacity="0.4422230764532541"></circle><circle r="8.956990392221526" cx="641.7906288905979" cy="284.43089533370625" opacity="0.2193222419286487"></circle><circle r="7.35148750256469" cx="201.23149040507911" cy="533.2350787532971" opacity="0.8803013392156037"></circle><circle r="6.406864757872443" cx="266.7610892142696" cy="306.66426577573066" opacity="0.29040145952905366"></circle><circle r="7.869710183940386" cx="777.2193666368846" cy="212.01521170067605" opacity="0.2875208434120692"></circle><circle r="11.7272731787935" cx="362.2439613559786" cy="547.4502465720718" opacity="0.4995069142639398"></circle><circle r="5.685552095910445" cx="489.30871762309545" cy="402.0593487850866" opacity="0.6021798346923785"></circle><circle r="6.637824494278886" cx="252.55476044225807" cy="275.8524969270464" opacity="0.3626090944687723"></circle><circle r="10.1726610670411" cx="332.26306321963006" cy="706.1665890273129" opacity="0.30544369063138566"></circle><circle r="4.758993055177097" cx="484.61614501738933" cy="94.15095126281938" opacity="0.5722381228088029"></circle><circle r="10.934086441255221" cx="595.8364564474869" cy="465.3021628967455" opacity="0.7701418773782246"></circle><circle r="8.224089137844631" cx="40.36021346271741" cy="63.29612965837553" opacity="0.6251686954176268"></circle><circle r="10.873170669431207" cx="19.22477536599979" cy="702.0277581278168" opacity="0.8758428483400481"></circle><circle r="8.083606360584657" cx="143.5304093587188" cy="770.8206191234019" opacity="0.9011912584182258"></circle><circle r="6.072999883808257" cx="435.8313007950545" cy="286.0109181183161" opacity="0.4870434468953483"></circle><circle r="10.49320605497735" cx="101.42313897442196" cy="437.90918651534287" opacity="0.6235254468716792"></circle><circle r="7.646255202827527" cx="258.76278109369196" cy="169.96328471299896" opacity="0.5421431753709289"></circle><circle r="6.416970208043556" cx="723.6308195408868" cy="769.4154232969001" opacity="0.5069381168421367"></circle><circle r="5.093677701009644" cx="435.0461665027834" cy="601.4419124804783" opacity="0.8032807778460159"></circle><circle r="7.747007010738882" cx="18.361886442229185" cy="244.29251645713455" opacity="0.9780766901841217"></circle><circle r="5.356135981660751" cx="51.460520169186054" cy="507.36751346199316" opacity="0.3664776804394463"></circle><circle r="7.880457646599398" cx="599.1079055179059" cy="331.2278858999865" opacity="0.3224462585927548"></circle><circle r="7.880257273868973" cx="755.7094830515224" cy="774.8373499477975" opacity="0.233975640150925"></circle><circle r="9.0011541211488" cx="428.04083896465033" cy="758.2288985455101" opacity="0.17143436482357513"></circle><circle r="6.55268304244026" cx="722.4419272870003" cy="479.70870510449777" opacity="0.14058105359229178"></circle><circle r="7.3426512980196055" cx="508.3721173423719" cy="432.2485446472376" opacity="0.9633469834251552"></circle><circle r="11.290221215028552" cx="309.88155996051944" cy="153.60054450205712" opacity="0.8785359882541871"></circle><circle r="4.032198974501392" cx="470.7055295583465" cy="337.3286564727671" opacity="0.9090083270865971"></circle><circle r="8.048136035037437" cx="577.7166739445844" cy="366.5084988575351" opacity="0.9874593902115519"></circle><circle r="10.747768152741894" cx="62.618458245222385" cy="654.9014454691531" opacity="0.7974845651240045"></circle><circle r="8.351824293883627" cx="614.9984200276322" cy="513.7165355487211" opacity="0.24038717654659592"></circle><circle r="4.924508118867633" cx="492.86178228517156" cy="48.93226872332597" opacity="0.9689761299029475"></circle><circle r="13.283119307511765" cx="633.6271880355547" cy="749.8632489357686" opacity="0.9435007581087819"></circle><circle r="6.168601011527713" cx="457.183555019001" cy="214.68565850591207" opacity="0.18321757867758787"></circle><circle r="6.02600996545037" cx="97.59753159146855" cy="127.85330598041112" opacity="0.9023424820767261"></circle><circle r="3.5503208711392995" cx="787.7071018775947" cy="510.5684410477915" opacity="0.6524967045284217"></circle><circle r="6.075948518391344" cx="776.9097796152645" cy="575.0567360452304" opacity="0.48161548142947386"></circle><circle r="8.245333285486034" cx="739.5104741185289" cy="70.71709213102335" opacity="0.5059461622706211"></circle><circle r="5.971885316863501" cx="536.4947245344497" cy="41.598397168916506" opacity="0.8342814167861854"></circle><circle r="7.195145614819561" cx="425.8032942162726" cy="79.74379984067451" opacity="0.6811564919159182"></circle><circle r="6.869907501212101" cx="598.1952099774979" cy="772.63515521853" opacity="0.23154421387609928"></circle><circle r="9.051806111422602" cx="193.0243318649305" cy="350.61528690846933" opacity="0.7305890254423417"></circle><circle r="4.612909945971747" cx="781.8221442954712" cy="745.1753256443963" opacity="0.953428948200132"></circle><circle r="5.91340294805341" cx="494.94230299764695" cy="612.6225228122632" opacity="0.9467637714545251"></circle></g></svg>